<?xml version="1.0" standalone="no"?>
<!DOCTYPE svg PUBLIC "-//W3C//DTD SVG 20010904//EN"
 "http://www.w3.org/TR/2001/REC-SVG-20010904/DTD/svg10.dtd">
<svg version="1.0" xmlns="http://www.w3.org/2000/svg"
 width="1100.000000pt" height="1100.000000pt" viewBox="0 0 1100.000000 1100.000000"
 preserveAspectRatio="xMidYMid meet">
<metadata>
Created by potrace 1.14, written by Peter Selinger 2001-2017
</metadata>
<g transform="translate(0.000000,1100.000000) scale(0.100000,-0.100000)"
fill="#000000" stroke="none">
<path d="M3914 10984 c3 -9 6 -18 6 -20 0 -3 4 -2 10 1 6 4 7 -1 3 -10 -4 -13
-1 -16 18 -13 13 2 23 8 22 14 -1 5 9 10 22 10 13 0 21 -4 19 -8 -3 -4 -12 -8
-20 -8 -8 0 -14 -4 -14 -9 0 -19 31 -81 40 -81 6 0 10 -13 10 -28 0 -34 37
-115 49 -107 5 2 14 -2 21 -10 16 -19 25 -19 50 2 10 9 32 19 47 21 15 2 29 5
32 7 2 2 16 -2 32 -10 18 -10 30 -11 34 -5 3 6 3 10 0 10 -3 0 0 6 7 14 9 10
18 11 32 4 10 -6 34 -7 55 -2 40 8 73 6 81 -6 12 -17 160 -38 160 -22 0 5 18
12 41 16 24 4 39 11 37 18 -5 13 26 48 41 48 5 0 19 12 30 26 12 15 21 23 21
19 0 -4 11 0 25 9 14 10 31 13 38 9 15 -10 67 -10 67 0 0 4 8 7 19 7 12 0 20
-9 23 -25 3 -13 1 -23 -5 -22 -6 1 -13 -6 -15 -15 -2 -10 1 -18 7 -18 6 0 11
6 11 13 0 6 7 3 16 -8 13 -17 17 -18 27 -5 14 17 64 15 86 -3 12 -9 13 -9 7 0
-5 9 -2 11 9 7 14 -6 12 -11 -12 -36 -23 -24 -25 -30 -13 -38 11 -7 19 -4 28
8 12 16 15 15 35 -10 l23 -28 26 25 c17 15 29 21 33 14 5 -7 15 -5 31 6 20 13
28 13 46 3 27 -15 38 -29 32 -39 -2 -4 7 -9 20 -11 17 -4 23 -1 19 9 -3 7 -9
10 -14 7 -10 -6 -1 25 13 42 5 7 7 16 6 20 -4 12 8 15 28 7 9 -3 25 -1 35 6
17 10 19 8 19 -24 0 -19 0 -38 -1 -41 -1 -8 22 -24 35 -24 5 0 3 7 -4 15 -10
12 -10 18 0 30 6 8 9 19 5 25 -3 5 1 10 10 10 25 0 95 24 95 33 0 5 -4 6 -9 2
-5 -3 -12 -1 -16 5 -4 6 -12 7 -24 1 -9 -5 -21 -7 -27 -3 -12 9 -14 52 -2 52
6 0 7 -8 3 -17 -5 -14 -3 -15 5 -6 8 7 22 8 40 3 21 -6 31 -4 41 9 20 25 24
48 7 33 -11 -8 -16 -7 -25 7 -9 14 -7 20 8 30 11 6 25 9 31 5 7 -4 8 -3 4 4
-4 7 -1 12 6 12 8 0 15 11 16 25 1 19 -3 25 -19 25 -18 0 -20 -4 -15 -26 5
-19 3 -25 -6 -22 -7 3 -12 15 -12 26 1 18 -4 22 -27 22 -31 0 -40 -25 -18 -47
6 -6 8 -17 4 -23 -6 -9 -10 -9 -16 1 -7 11 -9 10 -9 -4 0 -10 -4 -15 -10 -12
-5 3 -10 1 -10 -4 0 -6 -7 -11 -15 -11 -8 0 -15 5 -15 11 0 5 5 7 11 3 8 -5 8
-1 0 14 -6 12 -15 23 -20 26 -5 4 -7 15 -4 26 5 19 -3 20 -752 19 -706 0 -759
-1 -772 -17 -14 -16 -14 -16 -9 1 4 13 0 17 -20 17 -20 0 -25 -4 -20 -16z
m618 -33 c-5 -3 -12 -13 -15 -21 -3 -8 -5 -1 -4 17 1 25 4 30 15 21 7 -6 9
-14 4 -17z m603 9 c3 -6 -4 -10 -17 -10 -18 0 -20 2 -8 10 19 12 18 12 25 0z
m92 -16 c-3 -3 -12 -4 -19 -1 -8 3 -5 6 6 6 11 1 17 -2 13 -5z m170 -30 c-3
-3 -12 -4 -19 -1 -8 3 -5 6 6 6 11 1 17 -2 13 -5z m46 -14 c4 0 5 4 2 10 -3 6
1 7 10 4 13 -5 13 -9 3 -22 -10 -12 -10 -14 0 -8 6 4 12 3 12 -2 0 -10 -49
-21 -68 -14 -15 5 -16 32 -1 32 5 0 8 -4 4 -9 -3 -5 -1 -12 4 -15 5 -4 8 5 6
20 -2 18 1 22 8 15 6 -6 15 -11 20 -11z m142 -21 c-3 -4 -13 -5 -22 -2 -11 4
-13 8 -5 11 7 2 9 9 5 15 -4 7 1 6 10 -2 9 -7 14 -17 12 -22z m-62 4 c-7 -2
-19 -2 -25 0 -7 3 -2 5 12 5 14 0 19 -2 13 -5z m-403 -7 c0 -2 -7 -9 -15 -16
-12 -10 -15 -10 -15 4 0 9 7 16 15 16 8 0 15 -2 15 -4z m191 -48 c5 -10 14
-16 20 -13 5 4 9 2 9 -4 0 -5 -4 -12 -9 -15 -5 -3 -8 -14 -6 -24 1 -9 0 -11
-2 -4 -3 6 -9 12 -14 12 -6 0 -7 5 -4 10 3 6 0 10 -7 10 -9 0 -9 3 2 10 13 8
8 14 -11 12 -3 0 -10 8 -16 18 -10 15 -9 17 8 13 11 -3 24 -14 30 -25z m169
19 c0 -9 -15 -13 -49 -13 -55 0 -62 10 -10 14 18 1 35 5 38 7 9 10 21 5 21 -8z
m-286 -32 c4 -10 -1 -15 -14 -15 -11 0 -23 0 -27 -1 -5 0 -9 7 -11 15 -5 21
44 22 52 1z m-567 -21 c-3 -3 -12 -4 -19 -1 -8 3 -5 6 6 6 11 1 17 -2 13 -5z
m-237 -18 c0 -3 -4 -8 -10 -11 -5 -3 -10 -1 -10 4 0 6 5 11 10 11 6 0 10 -2
10 -4z"/>
<path d="M5721 10988 c-1 -11 -9 -18 -20 -18 -11 0 -18 -6 -17 -12 4 -29 19
-39 51 -36 19 1 37 -1 41 -5 11 -10 24 -9 24 4 0 5 -4 8 -9 4 -5 -3 -12 -1
-15 4 -3 5 -15 7 -25 4 -10 -3 -22 0 -25 6 -5 7 3 11 21 12 23 0 25 2 9 8 -11
4 -23 16 -27 27 -7 17 -8 17 -8 2z"/>
<path d="M5950 10989 c0 -5 -4 -8 -9 -4 -11 6 -26 -33 -17 -42 3 -4 6 -1 6 6
0 7 10 21 23 32 12 10 16 18 10 19 -7 0 -13 -5 -13 -11z"/>
<path d="M8655 10958 c3 -24 8 -90 11 -148 3 -58 8 -107 12 -110 4 -3 8 -16
10 -30 1 -14 4 -47 7 -75 3 -27 7 -70 10 -95 3 -25 8 -76 11 -115 4 -38 10
-74 14 -80 4 -5 8 -34 9 -64 1 -29 6 -61 11 -71 6 -11 6 -21 1 -24 -10 -6 -8
-20 8 -96 5 -25 12 -69 15 -98 6 -52 23 -82 46 -82 6 0 8 -5 5 -10 -4 -6 -10
-8 -15 -5 -15 9 -27 -28 -20 -65 3 -24 10 -35 22 -34 9 1 14 -4 12 -11 -3 -7
-1 -16 5 -20 19 -11 12 -34 -8 -28 -18 4 -19 0 -16 -39 2 -23 9 -56 15 -73 6
-16 11 -31 11 -32 -4 -15 2 -23 17 -23 16 -1 16 -1 0 -11 -22 -13 -24 -69 -3
-108 8 -16 11 -32 7 -35 -3 -4 2 -4 13 0 19 6 19 6 3 -7 -20 -16 -23 -39 -12
-121 5 -46 10 -58 25 -58 19 0 35 -33 24 -50 -5 -8 -11 -7 -21 1 -11 9 -14 8
-14 -7 0 -33 16 -50 33 -36 12 10 16 9 21 -4 10 -25 7 -31 -14 -37 -25 -6 -25
-56 0 -52 8 1 14 9 12 16 -3 11 -1 11 9 2 10 -10 9 -15 -1 -28 -10 -12 -10
-15 0 -15 8 0 11 -3 8 -6 -4 -3 -15 -1 -26 5 -16 8 -21 7 -26 -4 -8 -21 3 -45
36 -77 29 -28 30 -48 2 -48 -25 0 -15 -27 16 -40 17 -7 30 -17 30 -22 0 -5 -8
-5 -18 1 -24 13 -37 2 -39 -33 -3 -38 15 -72 30 -57 18 18 29 12 17 -9 -6 -11
-8 -25 -5 -30 3 -6 2 -10 -4 -10 -5 0 -12 6 -14 13 -4 9 -6 9 -6 0 -1 -6 4
-15 9 -18 15 -9 12 -25 -6 -25 -8 0 -12 -5 -8 -11 4 -8 9 -8 17 0 13 13 37 14
37 2 0 -5 -7 -16 -15 -25 -18 -18 -20 -37 -2 -34 6 2 12 -4 12 -12 0 -8 4 -21
9 -28 4 -7 5 -16 1 -20 -3 -3 -10 0 -15 8 -8 13 -10 13 -10 -1 0 -9 8 -23 17
-30 15 -12 16 -12 8 1 -4 8 -4 12 0 7 15 -13 14 -35 -1 -48 -8 -6 -14 -16 -14
-21 0 -6 7 -5 15 2 12 10 15 10 15 0 0 -7 -8 -19 -17 -26 -13 -9 -14 -13 -4
-14 7 0 11 -6 7 -15 -3 -9 0 -15 8 -15 7 0 13 -6 14 -12 5 -61 2 -101 -8 -111
-10 -9 -11 -9 -5 3 8 13 7 13 -10 0 -17 -14 -17 -15 8 -18 23 -3 27 -8 27 -36
0 -17 7 -58 15 -91 12 -44 13 -66 5 -89 -6 -18 -7 -32 -1 -36 5 -3 11 -17 13
-32 2 -15 7 -30 10 -34 7 -6 2 -74 -7 -101 -2 -6 3 -14 11 -17 20 -8 17 -25
-8 -47 -21 -18 -21 -19 -4 -17 23 3 34 -28 40 -112 2 -30 7 -63 11 -72 6 -14
2 -18 -15 -18 -13 0 -20 -5 -17 -12 2 -7 14 -12 26 -11 19 3 21 -2 22 -55 1
-73 7 -138 16 -182 7 -33 11 -72 15 -167 2 -24 6 -43 10 -43 4 0 5 -7 2 -15
-4 -8 -2 -21 4 -28 9 -11 25 -164 26 -254 1 -18 4 -33 8 -33 4 0 6 -26 3 -57
-2 -31 1 -63 6 -70 6 -6 12 -49 13 -95 2 -46 6 -91 10 -100 10 -22 3 -54 -11
-51 -6 1 -23 -15 -37 -36 -26 -38 -26 -38 -16 -137 6 -54 13 -111 16 -126 7
-46 -30 -77 -103 -84 -33 -4 -67 -10 -74 -15 -22 -13 14 -43 82 -70 79 -31
111 -68 108 -123 -2 -28 5 -52 19 -76 12 -19 23 -38 23 -42 1 -5 3 -17 4 -28
1 -11 4 -21 5 -22 1 -2 4 -23 6 -47 3 -40 15 -60 37 -61 5 0 6 4 3 8 -2 4 0
14 5 22 8 12 9 11 7 -5 -2 -12 2 -19 10 -18 6 2 12 -2 12 -7 0 -6 -13 -10 -30
-10 -16 0 -30 -2 -30 -4 0 -13 28 -55 33 -49 4 3 7 1 7 -5 0 -6 -4 -13 -9 -17
-15 -9 -3 -66 16 -81 17 -13 17 -14 1 -8 -10 3 -18 2 -18 -4 0 -13 -77 -65
-87 -59 -4 2 -17 1 -28 -4 -19 -7 -19 -8 2 -8 16 -1 21 -6 17 -16 -5 -11 -2
-13 10 -9 12 5 15 2 10 -10 -3 -8 1 -22 9 -31 8 -8 13 -24 10 -35 -3 -11 -2
-28 2 -37 5 -10 9 -38 11 -62 2 -36 -1 -44 -17 -48 -10 -3 -19 -9 -19 -13 0
-5 10 -6 22 -2 18 4 20 2 15 -18 -3 -13 -1 -32 5 -44 7 -13 7 -21 1 -23 -6 -2
-9 -18 -7 -35 2 -17 -1 -37 -7 -44 -7 -8 -7 -14 1 -19 5 -3 10 -13 10 -21 0
-8 -4 -13 -9 -10 -10 6 -9 -7 3 -39 5 -11 10 -27 14 -35 3 -8 4 -21 3 -27 -1
-7 3 -13 10 -13 8 0 8 -4 -1 -15 -10 -12 -8 -14 9 -10 15 3 19 0 14 -8 -4 -7
-8 -15 -8 -19 0 -3 -4 -10 -9 -15 -5 -4 -6 -3 -2 4 3 6 2 14 -3 17 -5 4 -8 0
-7 -6 3 -25 17 -37 34 -31 11 4 9 -1 -7 -15 -13 -12 -21 -22 -17 -22 4 0 2 -9
-3 -19 -8 -14 -7 -22 4 -31 8 -7 15 -19 15 -26 0 -8 12 -19 26 -25 15 -5 24
-12 21 -15 -9 -9 30 -43 50 -43 51 -2 105 -10 116 -19 6 -5 19 -9 27 -9 8 -1
29 -4 45 -8 35 -8 77 -14 122 -16 22 -2 35 -8 39 -21 5 -16 8 -17 21 -7 8 7
41 13 73 13 51 1 57 -1 54 -18 -2 -10 0 -15 4 -12 4 4 7 13 7 19 0 7 10 13 23
15 12 2 22 -2 22 -8 0 -6 5 -8 13 -3 17 10 167 12 167 1 0 -13 28 -9 33 5 3 9
11 8 33 -4 18 -11 41 -15 63 -11 22 3 32 1 27 -6 -10 -17 25 -23 54 -8 17 8
33 10 41 5 8 -5 30 -9 50 -9 29 0 38 -5 44 -22 6 -19 8 -20 12 -6 2 10 10 15
19 11 8 -3 14 0 14 6 0 6 9 11 19 11 14 0 18 -5 14 -20 -4 -13 0 -20 9 -20 22
0 29 12 17 27 -9 10 -5 13 20 13 17 0 31 -5 31 -11 0 -7 9 -9 21 -6 25 7 51
-2 43 -14 -3 -5 2 -9 10 -9 9 0 16 4 16 9 0 5 9 11 20 14 13 3 18 1 13 -6 -4
-7 1 -6 11 2 12 10 20 11 28 3 7 -7 19 -7 33 -2 13 5 25 6 28 3 3 -2 23 -6 44
-7 21 -1 49 -8 62 -15 13 -7 21 -9 17 -3 -3 5 1 12 9 16 13 5 15 111 15 861 0
508 -4 855 -9 855 -5 0 -8 11 -7 24 2 18 -3 26 -18 30 -16 4 -18 8 -9 17 9 9
16 9 28 -1 13 -11 15 237 15 2494 l0 2506 -1176 0 -1176 0 7 -42z m198 -1373
c-8 -22 -22 -18 -16 5 3 11 9 17 14 15 4 -3 6 -12 2 -20z m496 -580 c9 -27 18
-51 21 -53 3 -1 5 -49 5 -107 0 -112 -5 -125 -51 -125 -32 0 -43 20 -49 86 -3
32 -9 88 -14 124 -9 58 -7 100 6 123 3 4 19 7 36 5 28 -3 33 -8 46 -53z m-225
-22 c14 -30 14 -33 -1 -33 -14 0 -14 -2 2 -20 12 -13 16 -30 13 -54 -2 -19 0
-32 4 -30 4 3 7 -5 7 -18 -1 -13 1 -34 5 -48 7 -30 -1 -45 -31 -54 -16 -5 -23
-2 -28 15 -4 11 -2 26 4 32 16 16 14 40 -4 33 -18 -6 -19 7 -4 35 8 16 7 25
-7 40 -15 17 -15 19 -2 14 22 -9 30 8 14 31 -12 16 -12 20 3 32 9 7 11 11 6 8
-19 -8 -37 10 -31 31 10 30 32 24 50 -14z m-154 -248 c0 -10 -10 -15 -27 -15
-16 0 -23 4 -17 8 6 4 10 15 8 24 -2 15 1 16 17 8 10 -6 19 -17 19 -25z m1044
-2244 c3 -5 -5 -16 -19 -25 -24 -16 -25 -16 -25 5 0 15 5 19 15 15 8 -3 15 -1
15 4 0 12 7 13 14 1z m-264 -41 c0 -5 -7 -7 -15 -4 -8 4 -15 8 -15 10 0 2 7 4
15 4 8 0 15 -4 15 -10z m640 -25 c0 -8 -9 -15 -20 -15 -17 0 -19 2 -8 15 17
19 28 19 28 0z m60 5 c0 -5 -5 -10 -11 -10 -5 0 -7 5 -4 10 3 6 8 10 11 10 2
0 4 -4 4 -10z m-196 -251 c13 -12 -26 -104 -44 -104 -14 0 -19 -39 -10 -70 7
-26 -2 -75 -16 -89 -20 -20 -82 -23 -65 -3 6 8 8 16 5 19 -3 4 2 21 11 39 16
29 16 35 2 58 -18 30 -19 42 -6 58 7 7 6 14 -2 19 -8 5 -9 3 -4 -6 5 -8 3 -11
-6 -8 -25 8 -22 48 5 73 14 13 26 21 26 18 0 -4 6 -1 13 6 13 13 74 7 91 -10z
m696 -143 c0 -11 -19 -15 -25 -6 -3 5 1 10 9 10 9 0 16 -2 16 -4z m-1065 -345
c3 -5 2 -12 -3 -15 -5 -3 -9 1 -9 9 0 17 3 19 12 6z m85 -5 c0 -9 14 -15 40
-18 22 -2 40 0 40 4 0 5 -6 8 -14 8 -34 0 -20 15 15 17 21 1 39 -3 39 -8 0 -5
-7 -9 -15 -9 -8 0 -15 -5 -15 -11 0 -7 8 -6 23 4 16 10 28 12 40 5 13 -7 17
-5 17 8 0 31 11 7 15 -32 3 -42 13 -102 20 -121 2 -7 0 -15 -4 -18 -5 -2 -11
-14 -14 -25 -3 -11 -2 -18 3 -15 17 10 28 -23 31 -92 2 -39 1 -74 -2 -78 -9
-9 -238 -11 -232 -2 4 7 -32 5 -134 -9 -20 -2 -33 1 -33 7 0 7 -11 8 -31 4
-24 -6 -30 -4 -27 6 3 9 20 14 44 14 51 0 62 9 59 45 -2 25 1 30 13 25 12 -5
13 -3 2 10 -7 9 -9 15 -4 14 21 -4 26 2 14 17 -8 8 -9 14 -4 13 5 -1 16 -1 26
0 23 2 11 38 -15 45 -18 5 -19 8 -8 15 8 5 22 6 30 1 17 -9 23 -10 47 -10 8 0
13 -4 10 -9 -3 -5 1 -11 9 -15 11 -4 15 2 15 26 0 25 3 29 12 20 18 -18 32
-15 43 11 6 12 17 22 25 22 9 0 15 9 15 23 0 12 -2 21 -5 20 -12 -4 -50 24
-50 36 0 9 -7 12 -20 9 -12 -3 -20 0 -20 8 0 7 -7 21 -17 31 -15 17 -15 18 0
18 10 0 17 -6 17 -14z m-163 -13 c0 -12 -10 -17 -29 -15 -3 1 -8 -5 -11 -12
-4 -9 0 -12 13 -9 10 3 21 -1 25 -7 10 -16 -85 -4 -100 12 -7 8 -6 9 3 4 7 -4
12 -2 12 6 0 8 15 18 33 24 44 13 54 13 54 -3z m-200 -6 c6 -4 14 -3 18 3 10
16 55 12 55 -5 0 -11 -12 -15 -42 -16 -24 -1 -47 0 -53 1 -5 2 -20 2 -32 2
-21 -2 -30 8 -19 19 7 7 60 4 73 -4z m334 -6 c-7 -5 -12 -11 -12 -15 1 -3 -1
-6 -4 -6 -3 0 -9 0 -15 0 -5 0 -10 7 -10 16 0 10 6 14 15 11 8 -4 17 -2 21 4
3 6 9 8 12 4 4 -3 1 -10 -7 -14z m6 -127 c-3 -3 -12 -4 -19 -1 -8 3 -5 6 6 6
11 1 17 -2 13 -5z m-505 -61 c-6 -3 -10 -9 -6 -14 3 -5 -1 -9 -9 -9 -8 0 -17
7 -20 14 -4 10 -1 13 7 10 8 -3 17 0 21 6 4 6 10 8 14 4 3 -4 0 -9 -7 -11z
m128 3 c0 -2 -7 -7 -16 -10 -8 -3 -12 -2 -9 4 6 10 25 14 25 6z m-176 -37 c-3
-5 -10 -7 -15 -3 -5 3 -7 10 -3 15 3 5 10 7 15 3 5 -3 7 -10 3 -15z m101 -15
c1 -12 -4 -21 -10 -21 -6 0 -12 11 -13 24 -1 15 3 23 10 21 6 -2 12 -13 13
-24z m59 15 c-2 -4 0 -10 5 -13 5 -3 7 -16 3 -28 -4 -16 -2 -19 9 -14 8 4 6 1
-5 -8 -11 -9 -16 -21 -12 -32 6 -16 8 -16 25 0 16 14 21 15 28 4 4 -7 17 -14
28 -15 35 -4 54 -9 62 -18 4 -4 3 -6 -2 -2 -6 3 -17 2 -25 -3 -8 -5 -22 -4
-32 1 -14 7 -23 6 -34 -6 -13 -13 -19 -13 -32 -3 -13 11 -14 11 -7 -2 6 -12 5
-13 -6 -2 -7 6 -21 12 -31 12 -17 0 -23 11 -19 34 1 5 -9 6 -23 4 -17 -4 -23
-1 -19 8 3 7 8 13 11 12 27 -3 40 7 50 38 9 30 8 35 -4 30 -8 -3 -12 -2 -9 3
3 6 14 9 25 8 10 -1 17 -4 14 -8z m-138 -69 c-6 -3 -12 -20 -13 -38 0 -18 -4
-36 -7 -39 -8 -9 -56 18 -50 28 2 4 0 10 -6 14 -6 4 -8 11 -5 16 4 5 0 9 -7 9
-10 0 -9 3 2 10 18 11 34 -10 17 -23 -8 -6 -5 -7 7 -3 10 4 24 2 30 -3 8 -7
11 0 11 24 0 24 -3 31 -12 24 -8 -7 -10 -5 -8 8 2 10 4 20 4 23 1 2 12 -7 24
-20 15 -15 20 -27 13 -30z m18 -71 c-3 -5 -10 -7 -15 -3 -5 3 -7 10 -3 15 3 5
10 7 15 3 5 -3 7 -10 3 -15z"/>
<path d="M10120 5539 c0 -5 -6 -7 -12 -3 -7 4 -9 3 -5 -1 13 -15 36 -14 30 1
-6 17 -13 18 -13 3z"/>
<path d="M9950 5440 c0 -5 5 -10 11 -10 5 0 7 5 4 10 -3 6 -8 10 -11 10 -2 0
-4 -4 -4 -10z"/>
<path d="M9870 5380 c0 -6 7 -10 15 -10 8 0 15 2 15 4 0 2 -7 6 -15 10 -8 3
-15 1 -15 -4z"/>
<path d="M5504 10968 c0 -13 8 -18 30 -18 29 0 29 0 10 18 -24 24 -40 24 -40
0z"/>
<path d="M6028 10953 c7 -3 16 -2 19 1 4 3 -2 6 -13 5 -11 0 -14 -3 -6 -6z"/>
<path d="M5885 10920 c-3 -5 -1 -10 4 -10 6 0 11 5 11 10 0 6 -2 10 -4 10 -3
0 -8 -4 -11 -10z"/>
<path d="M5725 10871 c-7 -13 36 -26 44 -14 3 6 13 13 21 16 8 3 -2 6 -22 6
-20 1 -39 -3 -43 -8z"/>
<path d="M5665 10860 c3 -5 0 -10 -8 -10 -23 0 -56 -71 -46 -98 11 -29 44 -26
45 5 1 12 -3 21 -9 20 -5 -1 -11 8 -13 21 -2 14 0 21 6 17 34 -21 72 -2 53 27
-3 7 -1 8 5 4 7 -4 12 -3 12 2 0 10 -23 22 -41 22 -6 0 -7 -4 -4 -10z"/>
<path d="M5740 10825 c0 -8 5 -15 10 -15 6 0 10 7 10 15 0 8 -4 15 -10 15 -5
0 -10 -7 -10 -15z"/>
<path d="M5721 10761 c-1 -27 2 -32 11 -23 8 8 8 17 0 34 -10 22 -11 21 -11
-11z"/>
<path d="M5441 10771 c-11 -7 -11 -9 0 -14 10 -4 9 -6 -3 -6 -18 -1 -35 -26
-34 -48 1 -14 2 -15 32 -7 16 4 20 13 20 45 -1 21 -1 39 -1 39 0 0 -6 -4 -14
-9z"/>
<path d="M5755 10760 c3 -5 8 -10 11 -10 2 0 4 5 4 10 0 6 -5 10 -11 10 -5 0
-7 -4 -4 -10z"/>
<path d="M5506 10743 c-12 -12 -6 -21 24 -33 17 -7 30 -16 30 -21 0 -14 17
-10 23 5 3 8 -6 24 -21 37 -14 13 -20 16 -13 7 16 -22 -1 -24 -22 -3 -8 8 -17
11 -21 8z"/>
<path d="M5906 10731 c-4 -5 -16 -8 -27 -6 -46 9 -67 -24 -29 -45 11 -6 29
-32 41 -58 12 -26 23 -50 25 -54 9 -15 -14 -16 -40 -3 -25 13 -27 13 -36 -9
-5 -13 -20 -32 -34 -44 -14 -11 -26 -27 -26 -35 0 -8 -6 -18 -12 -20 -10 -4
-10 -6 0 -6 6 -1 12 -8 12 -16 0 -7 8 -19 18 -24 15 -9 14 -13 -15 -36 -38
-31 -41 -45 -12 -64 17 -10 23 -10 29 0 6 8 41 13 112 15 56 1 119 6 138 11
19 4 55 6 80 3 l45 -5 -37 -37 c-21 -20 -38 -41 -38 -46 0 -6 -10 -28 -22 -51
-18 -34 -19 -42 -8 -57 8 -9 24 -20 37 -25 26 -10 30 -27 8 -35 -9 -4 -15 -19
-15 -35 0 -27 3 -29 40 -29 38 0 40 -2 36 -27 -7 -61 -20 -94 -39 -104 -16 -9
-17 -13 -6 -20 8 -5 24 -9 37 -9 13 0 37 -13 54 -30 16 -16 37 -30 46 -30 13
0 13 -2 -3 -14 -11 -8 -25 -12 -31 -9 -18 7 -29 -18 -13 -28 8 -5 10 -9 5 -9
-5 0 -1 -9 9 -20 17 -19 17 -20 -9 -30 -15 -5 -29 -18 -33 -27 -4 -10 -20 -31
-36 -46 -18 -16 -26 -31 -21 -36 8 -7 88 -19 144 -21 30 -1 -12 -18 -61 -25
-31 -4 -54 -14 -67 -30 -25 -28 -20 -35 27 -35 20 0 52 -3 73 -6 39 -7 37 -1
29 -85 -1 -14 -15 -17 -78 -18 -52 -1 -82 -6 -93 -16 -17 -15 -41 -21 -120
-29 -25 -2 -55 -8 -68 -13 -20 -8 -13 -11 42 -22 37 -7 82 -10 101 -7 28 6 34
4 29 -8 -3 -8 -20 -18 -37 -22 -18 -3 -37 -10 -42 -14 -6 -5 -55 -16 -110 -25
-55 -8 -122 -19 -148 -24 -26 -4 -50 -4 -53 1 -3 4 1 8 8 9 7 0 0 5 -17 10
-16 5 -66 6 -109 2 -54 -4 -77 -3 -73 4 15 23 -22 35 -84 28 -68 -8 -109 6
-109 36 0 10 -7 22 -15 26 -8 5 -16 20 -18 33 -2 14 -6 24 -8 23 -2 -1 -16 -6
-31 -12 -16 -6 -28 -15 -28 -20 0 -4 -24 -11 -52 -14 -56 -6 -81 -11 -112 -23
-15 -6 -17 -4 -11 7 5 8 1 7 -12 -4 -26 -22 -113 -12 -113 14 0 5 -9 9 -19 9
-11 0 -26 6 -33 13 -7 8 -32 17 -55 20 -33 6 -51 2 -93 -19 -38 -19 -61 -24
-84 -20 -21 4 -26 3 -16 -3 12 -9 12 -11 -2 -16 -10 -4 -22 -3 -29 1 -8 4 -9
3 -5 -5 12 -19 -55 -10 -83 11 -13 10 -39 18 -57 18 -19 0 -34 4 -34 9 0 5 -8
12 -17 15 -24 10 -161 -62 -159 -83 0 -9 -5 -15 -12 -13 -8 1 -16 -7 -19 -18
-3 -13 -11 -19 -19 -16 -17 7 -19 -10 -1 -18 18 -7 -30 -46 -57 -46 -12 0 -27
-5 -33 -11 -8 -8 -13 -5 -18 11 -4 14 -12 19 -22 15 -9 -3 -23 1 -32 8 -23 20
-49 28 -53 16 -2 -6 -18 -3 -38 7 -24 12 -35 14 -38 6 -4 -14 -32 -16 -32 -3
0 5 6 12 13 14 9 4 8 8 -3 16 -12 9 -20 5 -36 -15 -18 -22 -22 -23 -34 -9 -7
8 -15 13 -17 11 -3 -3 -16 0 -30 5 -17 6 -30 6 -38 -1 -12 -10 -42 7 -83 47
-7 7 -23 13 -34 13 -11 0 -22 8 -25 20 -3 11 -13 20 -23 20 -9 0 -25 9 -34 19
-10 11 -28 21 -40 23 -13 2 -22 11 -24 26 -2 16 -14 27 -33 34 -19 7 -28 15
-25 24 3 8 2 14 -2 14 -4 0 -15 13 -25 29 -10 17 -26 40 -37 53 -11 13 -26 31
-33 42 -14 19 -77 31 -77 14 0 -5 -8 -8 -17 -7 -39 3 -63 -2 -63 -14 0 -31
-48 -59 -112 -66 -5 -1 -8 -6 -8 -12 0 -5 5 -7 10 -4 6 3 10 2 10 -3 0 -17
-13 -22 -28 -10 -11 10 -17 9 -27 -5 -7 -9 -25 -17 -42 -17 -20 0 -30 -5 -30
-15 0 -8 5 -15 11 -15 6 0 3 -5 -7 -11 -10 -6 -25 -8 -33 -5 -8 3 -25 -1 -38
-9 -13 -9 -45 -16 -72 -17 -38 -1 -57 4 -88 25 -40 28 -70 34 -81 17 -3 -5
-14 -10 -24 -10 -10 0 -35 -11 -55 -25 -21 -14 -47 -27 -59 -29 -27 -4 -33
-22 -15 -44 18 -20 35 -50 23 -40 -4 4 -14 3 -20 -2 -16 -13 -141 -19 -223
-11 -35 4 -66 3 -69 -2 -3 -4 -11 -6 -18 -3 -15 5 -38 -17 -28 -27 3 -4 1 -7
-5 -7 -6 0 -9 -6 -6 -14 3 -8 -3 -19 -15 -26 -12 -6 -21 -21 -21 -34 0 -13 -9
-31 -20 -41 -11 -10 -20 -15 -20 -11 0 3 -11 -1 -25 -10 -18 -12 -24 -22 -20
-35 4 -11 2 -19 -5 -19 -7 0 -9 -9 -5 -22 4 -14 3 -18 -2 -11 -13 18 -85 -9
-97 -36 -11 -26 -26 -27 -26 -2 0 11 -4 22 -9 26 -6 3 -8 -4 -6 -15 2 -11 -1
-20 -6 -20 -5 0 -9 6 -8 13 6 46 -23 51 -43 7 -7 -16 -18 -30 -24 -30 -6 0
-16 -11 -23 -24 -8 -13 -26 -26 -41 -29 -15 -4 -35 -14 -45 -23 -13 -14 -19
-14 -25 -4 -4 7 -13 10 -19 6 -6 -4 -20 -2 -31 4 -16 9 -20 8 -20 -5 0 -8 -4
-15 -10 -15 -5 0 -7 7 -4 15 7 18 0 19 -27 5 -16 -9 -21 -7 -28 11 -4 13 -10
18 -14 12 -4 -6 -16 -9 -27 -6 -11 3 -20 0 -20 -6 0 -6 -10 -11 -22 -11 -26 0
-91 22 -99 33 -8 11 -49 -46 -49 -68 0 -9 -13 -39 -29 -68 -16 -29 -29 -56
-29 -62 1 -5 -8 -15 -20 -20 -34 -18 -52 -37 -45 -48 4 -6 1 -7 -8 -1 -8 4
-19 9 -25 10 -7 1 -26 17 -43 35 -40 41 -71 48 -72 16 0 -22 0 -22 -9 -1 -5
12 -20 24 -34 26 -32 6 -55 -16 -40 -39 14 -22 -23 -96 -58 -116 -15 -9 -27
-22 -26 -29 2 -8 -5 -12 -18 -10 -29 4 -39 -25 -14 -38 16 -9 18 -14 9 -33 -8
-18 -17 -22 -40 -19 -16 2 -29 0 -29 -5 0 -6 -30 -8 -74 -5 -48 3 -76 1 -80
-7 -4 -6 -2 -12 3 -12 6 -1 16 -3 21 -4 6 -1 16 -3 23 -4 29 -4 -29 -30 -91
-41 -93 -16 -293 -57 -374 -76 -36 -8 -85 -15 -107 -16 l-41 0 0 -864 c0 -825
1 -864 18 -864 10 0 22 4 27 9 6 5 28 11 50 12 22 2 49 9 60 16 11 7 30 13 42
13 13 0 23 5 23 11 0 6 6 9 14 6 8 -3 17 0 19 7 3 7 31 18 64 24 114 22 163
36 163 48 0 9 -13 11 -42 9 l-43 -4 70 37 c39 20 70 42 69 47 0 6 19 24 42 42
23 18 44 39 48 48 3 9 10 13 16 10 6 -3 13 1 16 9 6 15 57 46 77 46 5 0 18 11
28 24 20 25 81 42 102 29 6 -4 23 -8 37 -8 53 -2 150 -17 150 -24 0 -4 19 -8
41 -10 30 -1 47 -9 61 -26 16 -20 23 -23 43 -15 18 7 24 6 22 -3 -1 -7 6 -11
15 -9 14 2 46 -35 40 -45 -1 -2 0 -3 3 -3 3 0 9 0 15 0 5 0 9 3 9 8 -3 18 2
32 12 32 5 0 8 -3 6 -7 -7 -11 15 -28 33 -28 8 0 18 5 23 10 4 6 10 6 15 -2 5
-8 13 -9 22 -3 12 7 10 13 -10 34 -23 26 -21 30 13 27 27 -3 20 16 -9 22 -20
3 -28 0 -31 -13 -3 -10 -12 -21 -20 -25 -27 -10 -25 2 3 28 16 15 25 31 21 41
-5 12 -2 14 18 6 26 -10 41 1 29 21 -5 9 1 10 22 5 18 -4 24 -3 16 2 -20 13
-12 26 25 38 33 12 86 10 106 -3 7 -5 33 -8 58 -9 25 0 50 -3 55 -5 5 -3 25
-6 44 -8 19 -2 38 -8 42 -15 5 -7 8 -5 8 6 0 9 -5 20 -10 23 -15 9 7 34 38 46
14 5 22 12 18 16 -3 3 0 13 7 21 10 13 9 14 -2 7 -10 -6 -12 -4 -7 4 5 7 14
10 22 7 7 -3 16 -1 19 4 9 15 25 12 25 -5 0 -25 49 15 50 40 1 19 2 19 12 -2
13 -28 28 -30 28 -5 0 24 19 42 36 35 8 -3 20 0 28 6 7 6 21 8 31 5 15 -6 16
-9 3 -18 -8 -6 -17 -19 -21 -29 -3 -9 -12 -16 -18 -15 -6 2 -13 -8 -15 -21 -3
-18 -1 -22 11 -17 9 3 14 2 12 -2 -6 -8 19 -33 26 -26 2 3 6 -8 9 -24 4 -26 2
-28 -20 -24 -21 4 -23 2 -15 -13 5 -9 8 -28 5 -41 -3 -18 -11 -24 -31 -25
l-26 0 24 -10 c15 -6 28 -6 36 1 6 5 14 8 16 5 8 -8 -3 -75 -12 -75 -5 0 -9 4
-9 9 0 5 -7 12 -16 15 -15 6 -15 3 1 -20 17 -26 17 -27 -3 -22 -32 9 -57 -14
-44 -39 13 -23 5 -38 -13 -23 -22 18 -36 -12 -21 -42 13 -24 12 -26 -2 -22
-14 5 -14 4 0 -6 20 -12 23 -54 9 -93 -9 -23 -2 -47 15 -50 5 -1 8 -5 7 -9 -2
-5 4 -8 12 -8 20 0 20 -46 0 -53 -8 -4 -17 -2 -20 3 -9 15 -25 12 -25 -4 0 -8
-5 -18 -12 -22 -7 -4 -8 -3 -4 4 11 18 -20 15 -38 -4 -9 -8 -16 -21 -16 -27 0
-8 -3 -9 -8 -1 -4 6 -15 13 -24 17 -11 4 -16 14 -13 28 5 26 25 50 25 31 0
-17 26 -15 44 3 17 17 30 20 21 5 -10 -15 31 -12 44 4 20 24 -34 52 -101 51
-40 0 -58 4 -58 13 0 6 -5 12 -11 12 -7 0 -9 -9 -6 -21 4 -16 2 -19 -11 -13
-9 4 -25 7 -34 8 -9 0 -15 3 -12 7 2 4 -3 12 -11 19 -8 7 -12 16 -9 21 3 5 -7
4 -23 -2 -15 -5 -25 -7 -21 -4 4 4 1 13 -5 20 -10 11 -15 10 -29 -2 -10 -9
-18 -22 -18 -28 0 -9 -10 -11 -34 -5 -28 6 -33 5 -29 -7 3 -8 11 -12 19 -9 16
6 38 -19 29 -36 -4 -7 1 -4 9 6 9 11 16 25 16 32 0 10 76 25 84 16 2 -2 -3
-16 -11 -33 -18 -35 -13 -64 10 -63 9 1 17 -3 17 -8 0 -6 13 -8 30 -6 23 3 31
0 36 -15 3 -10 1 -24 -5 -30 -14 -14 -14 -27 -1 -27 6 0 10 7 10 15 0 8 8 15
19 15 24 0 22 -29 -6 -59 -19 -21 -22 -21 -31 -5 -9 16 -10 16 -20 -3 -6 -11
-8 -23 -5 -27 3 -3 -3 -6 -15 -6 -23 0 -27 -7 -14 -26 10 -15 45 -27 36 -13
-4 7 0 9 12 6 25 -7 166 -21 179 -18 6 2 31 4 56 5 32 2 46 -1 46 -10 0 -7 -3
-11 -7 -9 -4 2 -12 -7 -18 -20 -7 -14 -16 -25 -22 -25 -6 0 -17 -15 -25 -32
-8 -19 -14 -26 -15 -15 0 24 -11 21 -35 -9 -11 -14 -27 -26 -35 -28 -14 -2
-91 -39 -135 -64 -39 -21 -150 -50 -161 -41 -6 5 -18 7 -26 4 -16 -7 -32 20
-22 36 8 14 -16 40 -29 32 -6 -3 -7 -1 -3 6 4 6 12 9 17 6 5 -4 9 -2 9 4 0 5
9 13 20 16 11 3 20 13 20 21 0 8 11 19 24 24 13 5 27 13 30 19 4 6 12 8 19 6
20 -8 35 8 39 40 2 25 -1 31 -20 33 -17 3 -21 8 -17 21 3 11 -3 28 -14 42 -12
14 -20 18 -21 11 0 -7 -4 -11 -9 -8 -15 10 -22 -26 -8 -43 14 -17 12 -51 -4
-51 -5 0 -9 5 -9 10 0 20 -3 25 -21 38 -14 10 -17 20 -12 44 4 20 2 29 -4 25
-5 -3 -9 -20 -8 -36 2 -26 0 -29 -14 -18 -10 8 -13 8 -8 0 12 -20 -11 -25 -42
-9 -16 9 -31 19 -33 23 -3 5 -3 3 -2 -4 3 -13 -31 -27 -45 -18 -5 3 -13 1 -16
-5 -4 -6 -15 -8 -26 -5 -11 4 -19 2 -19 -4 0 -14 -46 -14 -72 0 -12 6 -18 7
-14 1 3 -5 -1 -12 -9 -16 -11 -4 -15 2 -15 20 0 14 4 23 9 19 6 -3 8 3 6 13
-2 10 5 24 17 31 11 7 17 8 13 2 -10 -17 31 -13 45 4 7 8 9 15 5 15 -4 0 -2 7
5 15 16 19 10 19 -26 0 -26 -13 -29 -13 -32 0 -2 8 -14 15 -28 15 -14 0 -23 4
-19 9 3 5 -3 12 -14 16 -25 8 -93 -1 -100 -14 -4 -6 -21 -7 -46 -1 -25 6 -41
6 -43 0 -2 -6 -12 -10 -23 -10 -10 0 -19 -4 -19 -9 0 -4 12 -6 28 -4 l27 5
-25 -21 c-16 -14 -35 -20 -53 -18 -17 2 -27 -1 -27 -9 0 -20 -19 -27 -35 -14
-14 11 -19 7 -16 -12 0 -3 -11 -5 -25 -3 -28 3 -40 -10 -26 -28 12 -15 71 -14
80 0 4 6 16 13 27 15 15 2 21 -3 23 -21 2 -15 0 -21 -7 -17 -6 4 -11 3 -11 -3
0 -6 -8 -7 -17 -4 -15 6 -16 4 -6 -8 10 -12 8 -15 -10 -16 -11 -1 -27 3 -34 9
-13 10 -14 9 -17 -14 0 -6 -16 -16 -34 -20 -20 -6 -30 -13 -26 -20 5 -8 2 -9
-9 -5 -15 6 -22 -3 -18 -25 0 -5 -3 -8 -8 -8 -6 0 -9 -9 -8 -20 1 -17 3 -17
17 -6 22 21 53 23 72 7 17 -15 15 -36 -3 -26 -5 4 -19 3 -30 0 -16 -5 -18 -9
-9 -15 7 -5 21 -7 30 -5 9 2 16 -4 16 -14 0 -16 -3 -16 -26 -4 -27 14 -52 18
-35 5 16 -11 41 -47 28 -39 -7 5 -6 -5 4 -24 11 -22 18 -27 24 -18 4 7 6 16 4
19 -1 3 3 11 11 18 10 9 14 9 14 1 0 -6 7 -8 16 -5 9 4 24 0 34 -9 9 -8 31
-18 50 -21 28 -6 32 -5 27 9 -5 12 0 15 25 11 31 -3 52 -14 28 -14 -10 0 -10
-3 0 -15 10 -12 9 -15 -6 -16 -26 -2 -54 1 -81 6 -18 4 -24 0 -30 -22 -4 -16
-6 -34 -5 -40 2 -7 -5 -13 -14 -13 -15 0 -15 -2 0 -25 9 -14 13 -25 9 -25 -5
-1 3 -7 17 -15 34 -19 11 -19 -28 0 -19 10 -36 29 -43 49 -10 27 -18 33 -40
34 -30 1 -39 -12 -16 -22 8 -3 6 -9 -7 -20 -22 -18 -14 -21 13 -7 10 6 23 6
32 0 10 -6 11 -9 1 -9 -7 0 -10 -5 -7 -10 3 -6 -2 -13 -12 -17 -33 -12 -46
-25 -31 -34 20 -13 24 -11 36 16 13 29 37 34 30 7 -4 -15 -1 -18 18 -14 13 2
24 0 24 -5 0 -5 10 -9 21 -9 18 1 22 -5 23 -37 0 -20 -2 -37 -6 -37 -5 0 -8 9
-8 20 0 27 -41 27 -65 0 -10 -11 -22 -17 -26 -14 -12 7 -14 -30 -6 -81 1 -5
-5 -9 -13 -10 -8 -1 -14 -6 -13 -13 2 -6 -4 -9 -12 -6 -8 4 -15 10 -15 15 0 5
-11 9 -25 9 -17 0 -25 -5 -25 -18 0 -10 -9 -25 -20 -35 -25 -21 -30 -21 -30
-2 0 8 5 15 10 15 6 0 5 6 -2 14 -18 19 -31 9 -24 -20 6 -23 -2 -29 -27 -25
-5 1 -6 -3 -3 -8 7 -11 -29 -25 -43 -17 -5 3 -12 -4 -15 -17 -6 -22 -7 -22
-18 -2 -6 11 -12 21 -13 23 -5 6 -55 -46 -55 -57 0 -12 -10 -14 -54 -11 -24 1
-28 -1 -22 -17 13 -32 15 -52 6 -58 -5 -3 -7 4 -5 15 5 26 -9 26 -35 0 -11
-11 -26 -20 -33 -21 -6 -1 -1 -4 12 -8 l23 -6 -20 -25 c-11 -14 -28 -25 -38
-25 -10 0 -26 -17 -39 -41 -18 -33 -25 -40 -39 -32 -12 7 -18 4 -23 -9 -4 -10
-9 -20 -12 -23 -20 -17 -29 -48 -18 -59 9 -9 8 -14 -3 -21 -12 -8 -12 -10 -1
-10 11 0 11 -3 1 -15 -10 -12 -10 -18 -1 -29 8 -10 9 -16 1 -21 -5 -3 -15 4
-20 17 -8 18 -8 16 -4 -15 4 -24 2 -43 -7 -53 -11 -14 -14 -13 -26 8 -11 17
-13 18 -7 3 3 -11 7 -26 7 -33 0 -9 9 -12 24 -9 15 3 23 -1 23 -9 0 -8 6 -11
18 -7 9 3 5 -4 -10 -16 -15 -12 -33 -34 -41 -50 -13 -27 -13 -28 10 -25 17 2
23 -3 23 -18 0 -13 -5 -18 -13 -15 -8 3 -14 -1 -14 -8 0 -7 6 -11 14 -8 15 6
18 -13 3 -22 -6 -3 -10 -19 -10 -34 0 -20 -6 -30 -20 -34 -18 -5 -30 -29 -12
-26 23 4 32 -4 32 -27 0 -19 -4 -25 -14 -21 -16 6 -40 -16 -29 -26 3 -4 -1 -7
-9 -7 -9 0 -21 -7 -28 -15 -10 -12 -10 -15 2 -15 8 0 23 -7 34 -16 10 -8 13
-13 6 -9 -17 9 -10 -34 9 -46 11 -7 11 -9 1 -9 -7 0 -10 -4 -7 -10 3 -5 1 -10
-5 -10 -6 0 -8 -10 -4 -26 5 -20 2 -26 -15 -31 -11 -3 -18 -9 -15 -14 3 -5 10
-6 16 -3 6 4 8 2 4 -4 -3 -6 3 -17 14 -25 18 -13 19 -15 5 -21 -9 -3 -14 -2
-11 3 3 5 -1 11 -9 15 -20 7 -20 -18 0 -34 12 -10 13 -16 4 -27 -7 -7 -10 -16
-7 -18 6 -7 58 18 58 28 0 5 8 16 17 25 16 16 16 15 9 -8 -4 -14 -8 -31 -8
-37 -1 -7 -7 -13 -14 -13 -16 0 -25 -28 -20 -57 3 -13 2 -22 -2 -22 -4 1 -16
1 -27 0 -19 -2 -19 -3 -3 -15 22 -16 3 -40 -21 -27 -9 5 -27 5 -40 0 -19 -8
-21 -12 -11 -24 17 -21 -10 -46 -44 -39 -30 5 -34 -7 -9 -27 14 -12 16 -12 8
0 -5 10 -4 12 3 7 19 -11 14 -26 -10 -36 -13 -5 -17 -9 -10 -9 17 -1 15 -21
-3 -21 -12 0 -15 -18 -15 -100 0 -55 4 -100 8 -100 5 0 17 7 28 16 10 8 13 12
5 8 -10 -5 -12 -3 -7 5 5 7 15 10 23 7 20 -8 39 4 22 14 -10 7 -10 12 -1 22 8
10 8 18 1 25 -6 6 -5 10 6 10 18 0 20 -18 3 -36 -11 -11 -10 -12 1 -6 8 4 17
2 22 -6 6 -10 9 -8 9 9 0 22 15 28 38 14 9 -7 6 -15 -13 -36 -14 -15 -22 -32
-19 -38 4 -6 1 -14 -6 -18 -15 -10 -42 -2 -35 10 6 9 -21 7 -31 -2 -3 -4 -12
-4 -20 -1 -19 7 -18 -11 1 -27 8 -7 15 -8 15 -3 0 5 7 10 15 10 8 0 12 -3 10
-7 -3 -4 4 -15 15 -25 15 -14 17 -21 9 -32 -16 -18 -29 -16 -30 5 0 10 -3 12
-6 5 -2 -7 -11 -13 -19 -13 -8 0 -11 -6 -7 -16 3 -9 -3 -21 -16 -30 -21 -15
-21 -17 -21 -500 0 -342 3 -484 11 -484 21 0 164 42 197 57 17 9 32 20 32 25
0 4 5 8 12 8 6 0 19 6 27 14 22 18 68 28 76 16 4 -6 10 -8 14 -6 13 9 71 -48
76 -73 6 -31 19 -44 47 -48 32 -5 43 -19 29 -36 -17 -22 -17 -88 0 -101 9 -6
18 -19 22 -29 3 -9 13 -17 21 -17 9 0 13 -6 10 -14 -3 -8 0 -17 5 -21 6 -3 9
-10 6 -15 -3 -4 3 -6 14 -3 11 3 21 -2 24 -11 5 -13 16 -15 62 -10 49 6 55 5
49 -10 -3 -9 -10 -13 -15 -10 -16 9 -39 -10 -29 -25 11 -18 141 -27 169 -11
11 5 22 7 25 2 2 -4 27 -7 55 -6 49 1 50 0 30 -17 -11 -9 -18 -23 -17 -30 2
-7 -8 -18 -22 -26 -14 -7 -20 -13 -15 -13 6 0 3 -4 -5 -10 -15 -9 -16 -9 35
-25 21 -6 19 -32 -5 -45 -11 -6 -20 -15 -20 -21 0 -14 -26 -39 -34 -32 -3 3
-11 1 -18 -4 -19 -15 -71 -26 -63 -13 9 14 0 13 -43 -7 -20 -9 -39 -17 -42
-18 -3 -1 -12 -5 -20 -8 -8 -3 -51 -17 -95 -31 -44 -14 -123 -38 -175 -54 -52
-16 -165 -46 -250 -67 -85 -21 -161 -39 -167 -41 -10 -3 -13 -137 -13 -629 0
-677 -2 -648 53 -605 14 11 35 20 46 20 14 0 21 6 21 20 0 15 7 20 25 20 14 0
25 4 25 9 0 8 98 58 173 89 15 6 27 16 27 22 0 5 9 10 20 10 11 0 20 4 20 10
0 5 11 12 25 16 14 3 25 10 25 14 0 9 22 19 66 30 20 5 56 1 105 -12 41 -11
85 -21 99 -22 14 -2 36 -9 50 -16 14 -8 29 -13 33 -12 12 4 97 -40 97 -50 0
-4 -5 -8 -11 -8 -5 0 -7 -5 -4 -10 8 -12 62 -13 69 -1 3 4 39 11 81 14 83 7
132 24 184 65 20 15 45 30 56 33 15 4 19 12 17 35 -2 16 -7 33 -12 38 -16 16
-92 -14 -133 -51 -36 -32 -42 -34 -90 -29 -29 3 -63 8 -77 11 -14 4 -52 8 -85
11 -32 3 -71 12 -86 19 -15 8 -60 25 -100 39 -97 32 -106 47 -56 91 33 29 44
33 75 28 20 -4 47 -12 62 -20 14 -7 30 -13 36 -13 14 0 131 -58 166 -82 14
-10 43 -18 63 -18 30 0 45 7 74 38 20 20 43 47 51 60 16 23 66 38 167 49 40 4
56 11 67 28 13 20 13 25 1 35 -11 9 -108 29 -147 30 -14 0 12 62 42 101 34 42
54 45 91 13 22 -20 57 -18 61 4 5 21 -28 88 -48 96 -8 3 -14 13 -14 22 0 9 -7
22 -17 29 -27 20 -8 34 34 24 71 -17 111 -18 117 -3 3 8 12 14 20 14 9 0 13
-6 10 -14 -3 -8 -1 -24 6 -35 9 -18 6 -28 -22 -63 -22 -27 -29 -42 -20 -45 6
-3 9 -10 5 -16 -4 -7 -8 -32 -9 -57 -2 -60 -1 -58 -25 -65 -12 -4 -18 -13 -15
-20 5 -13 -21 -43 -33 -37 -3 2 -7 -4 -9 -12 -2 -9 1 -16 7 -16 6 0 11 -7 11
-15 0 -8 -4 -15 -9 -15 -12 0 -9 -33 4 -42 5 -4 3 -14 -7 -25 -8 -10 -14 -23
-11 -29 2 -6 -6 -19 -17 -29 -25 -22 -26 -36 -2 -32 9 1 19 -2 20 -8 2 -5 8
-15 13 -21 6 -8 4 -14 -7 -18 -24 -9 -42 -7 -25 3 9 6 10 11 2 15 -5 4 -28 -5
-50 -19 -23 -14 -46 -25 -52 -25 -7 0 -4 -9 7 -21 17 -19 18 -21 1 -30 -9 -6
-17 -21 -17 -34 0 -28 -73 -116 -124 -151 -20 -14 -40 -33 -46 -43 -5 -11 -26
-25 -45 -31 -19 -6 -35 -18 -35 -26 0 -8 -16 -22 -35 -31 -19 -9 -35 -23 -35
-30 0 -7 -7 -13 -15 -13 -7 0 -18 -6 -22 -13 -8 -14 -175 -100 -201 -103 -27
-4 -82 -38 -82 -51 0 -21 -52 -73 -94 -95 -48 -25 -87 -53 -81 -60 3 -3 -4
-13 -15 -23 -11 -10 -20 -15 -20 -10 0 4 -9 -4 -20 -18 -11 -14 -20 -29 -20
-33 0 -8 -22 -33 -54 -62 -11 -9 -29 -27 -41 -39 -26 -27 -25 -27 -62 -11 -15
7 -39 13 -53 14 -78 7 -201 24 -210 29 -6 4 -10 -10 -10 -34 l0 -41 206 0 206
0 119 70 c65 39 122 76 126 83 4 8 15 17 23 20 8 4 38 21 65 37 28 17 70 40
95 52 25 11 61 33 80 47 41 31 147 94 240 141 36 18 72 37 80 42 8 4 32 17 52
26 31 15 35 21 25 33 -6 7 -2 5 9 -4 21 -18 22 -17 42 15 28 44 68 82 76 70
10 -17 8 -104 -3 -162 -15 -76 -23 -131 -23 -155 0 -11 1 -86 1 -167 l1 -148
3646 0 c3321 0 3646 1 3640 16 -3 9 -6 24 -6 34 0 10 -6 25 -13 32 -22 22 -37
55 -37 82 0 30 7 32 35 10 15 -11 17 -17 7 -23 -9 -5 -6 -14 13 -31 14 -13 25
-32 25 -42 0 -10 7 -21 15 -24 8 -4 15 -17 15 -30 0 -23 3 -24 70 -24 66 0 70
1 61 19 -6 10 -12 54 -14 97 -3 44 -7 95 -10 114 -3 19 -8 58 -12 85 -6 53
-12 84 -21 125 -3 14 -10 48 -15 75 -9 49 -16 71 -79 230 -56 141 -120 272
-204 420 -25 44 -46 85 -46 91 0 51 -319 545 -429 662 -24 26 -55 61 -70 77
-14 17 -45 46 -69 64 -23 19 -45 46 -49 60 -3 14 -31 60 -61 101 -31 41 -76
120 -100 175 -24 55 -55 114 -68 132 -13 17 -24 35 -24 40 0 5 -16 32 -35 62
-19 29 -35 60 -35 70 0 23 -66 131 -95 156 -13 11 -29 38 -36 60 -24 76 -34
94 -53 97 -13 2 -24 15 -30 36 -6 21 -15 32 -28 32 -12 0 -24 13 -34 40 -9 22
-24 46 -33 53 -17 13 -28 42 -11 32 17 -10 11 23 -7 45 -10 11 -19 40 -20 66
-2 31 -9 51 -20 60 -26 20 -30 18 -38 -23 l-8 -38 -9 28 c-5 15 -14 27 -19 27
-5 0 -9 9 -9 20 0 14 7 20 21 20 15 0 19 4 15 16 -3 9 -6 18 -6 20 0 11 -19 1
-48 -25 -33 -31 -40 -59 -21 -78 6 -6 9 -19 6 -29 -4 -17 -6 -17 -12 3 -9 27
-9 27 -40 7 -22 -14 -25 -14 -25 -1 0 8 -7 20 -15 27 -12 10 -13 15 -3 21 9 6
5 15 -15 34 -14 15 -29 36 -32 46 -4 10 -11 19 -16 19 -5 0 -9 4 -9 10 0 5
-17 25 -37 44 l-38 34 52 24 c34 14 53 29 53 40 0 20 -32 32 -62 23 -17 -6
-20 -4 -14 11 4 10 1 21 -6 26 -10 6 -10 8 1 8 9 0 5 8 -10 21 -22 19 -23 21
-6 33 9 7 17 16 17 18 0 7 -42 21 -54 19 -5 -1 -3 5 4 14 18 21 -2 44 -23 26
-11 -9 -17 -8 -27 4 -11 13 -10 18 4 28 9 7 18 30 20 52 2 26 11 44 25 53 14
10 21 11 21 3 0 -6 5 -11 11 -11 6 0 9 10 7 23 -2 13 -9 21 -18 19 -10 -3 -7
5 8 20 12 14 22 36 22 51 0 23 5 26 45 33 40 6 74 24 45 24 -6 0 -10 8 -9 18
1 9 0 19 -1 22 -6 17 -7 39 -1 36 4 -3 13 -1 21 5 16 9 18 9 -35 13 -11 0 -23
-3 -27 -9 -5 -6 -8 -5 -8 2 0 7 11 20 25 29 21 14 23 18 11 28 -8 6 -17 31
-20 56 -6 44 -5 46 27 59 17 7 39 13 49 12 9 -1 24 8 32 21 l17 23 17 -21 17
-20 25 24 c15 15 18 23 9 19 -9 -3 -22 -1 -30 4 -9 5 11 8 51 7 51 -1 68 -6
81 -21 16 -20 45 -15 33 5 -4 7 -2 8 5 4 6 -4 8 -12 5 -18 -4 -6 1 -8 11 -6
25 4 31 28 8 29 -10 0 -3 6 17 13 19 8 52 13 73 12 20 0 37 4 37 9 0 6 -26 10
-60 10 l-61 -1 7 31 c3 16 3 27 -1 23 -5 -4 -15 -2 -24 5 -14 10 -14 10 -4 -4
17 -21 5 -32 -14 -13 -19 18 -33 10 -26 -16 4 -15 2 -19 -10 -14 -9 3 -18 12
-21 20 -7 19 -26 18 -42 -3 -8 -11 -13 -13 -14 -5 0 6 -5 12 -11 12 -5 0 -7
-6 -3 -12 5 -9 2 -9 -9 1 -9 7 -17 19 -17 25 0 6 5 4 11 -4 8 -12 10 -9 6 13
-3 18 0 27 9 28 8 1 20 2 27 3 6 1 17 -1 22 -5 6 -4 17 -4 25 1 11 7 11 10 3
11 -28 3 -32 4 -40 13 -4 5 -3 6 4 2 6 -3 14 -2 18 4 3 5 12 10 18 10 8 0 7
-3 -2 -9 -11 -7 -9 -10 8 -16 12 -3 18 -11 15 -17 -5 -7 -2 -8 6 -3 7 4 29 9
48 10 20 1 38 8 40 14 3 9 11 7 26 -6 11 -10 18 -14 14 -9 -4 5 -2 16 5 25 11
14 10 15 -8 1 -18 -13 -19 -13 -8 1 7 9 25 14 43 13 16 -1 30 1 30 5 0 4 18
12 40 17 22 6 37 7 34 2 -3 -4 2 -11 10 -14 9 -3 16 -12 16 -20 0 -22 13 -17
46 20 l31 34 17 -32 c9 -17 14 -23 11 -13 -3 11 -2 24 2 30 4 6 7 21 8 34 0
17 -5 23 -19 23 -16 0 -17 3 -8 12 10 10 17 10 33 0 21 -13 43 -7 23 6 -16 11
-23 38 -11 40 54 8 97 6 97 -5 0 -7 3 -12 8 -12 19 3 26 -2 13 -10 -14 -9 -7
-31 9 -31 17 0 15 35 -3 53 -23 23 -13 39 19 31 19 -5 24 -2 24 12 0 13 -3 15
-8 7 -5 -9 -11 -6 -21 9 -12 19 -11 20 8 15 12 -3 19 -1 15 4 -3 5 -16 9 -30
9 -13 0 -24 5 -24 10 0 6 -12 10 -27 10 -19 0 -24 3 -15 9 18 11 17 20 -5 37
-17 12 -16 13 5 9 20 -3 22 -2 12 10 -13 16 -6 35 13 35 9 0 9 -2 0 -8 -9 -6
-7 -12 7 -22 11 -8 20 -20 20 -26 0 -7 8 -15 17 -18 10 -4 14 -4 10 0 -4 4 0
18 8 31 15 22 14 24 -7 32 -13 5 -26 7 -30 5 -13 -8 -1 26 17 46 16 18 14 25
-7 21 -5 0 -8 7 -8 17 0 27 -11 34 -28 19 -13 -9 -14 -9 -8 0 5 9 2 11 -8 7
-9 -3 -16 -15 -16 -25 0 -20 15 -26 25 -9 9 15 24 3 20 -18 -2 -9 -4 -20 -4
-24 -2 -18 -29 -6 -39 17 -7 14 -20 25 -31 25 -23 0 -37 -16 -19 -23 17 -6 -2
-39 -24 -43 -14 -2 -15 2 -8 22 5 13 17 35 25 48 13 20 14 29 5 46 -6 12 -14
19 -17 16 -4 -3 -16 2 -27 11 -20 17 -20 17 -7 1 10 -13 10 -18 2 -18 -7 0 -9
-5 -5 -13 6 -9 5 -9 -8 1 -13 10 -18 9 -29 -5 -12 -15 -12 -16 1 -9 9 4 8 2
-2 -7 -10 -8 -14 -17 -11 -21 4 -4 -4 -6 -19 -4 -38 5 -43 14 -13 22 17 4 25
13 24 24 -2 16 9 69 18 85 2 4 14 2 26 -5 21 -11 21 -10 7 8 -14 18 -13 18 8
-1 19 -16 25 -17 32 -5 7 11 11 11 24 -3 14 -14 13 -17 -12 -37 -25 -20 -25
-20 -2 -8 14 7 28 11 32 10 4 -1 5 7 3 18 -2 13 2 20 11 20 8 0 14 -3 14 -8 0
-4 9 -13 21 -20 19 -12 20 -11 15 6 -9 29 16 45 40 27 24 -18 44 -19 44 -1 0
17 15 23 57 21 17 0 29 3 27 7 -3 4 5 8 17 8 31 0 18 10 -20 15 -17 2 -31 0
-31 -5 0 -15 -28 -12 -33 3 -3 9 -40 12 -133 14 -71 0 -250 4 -397 6 -227 5
-269 4 -274 -9 -3 -8 -14 -12 -27 -10 -11 3 -39 8 -60 11 -27 4 -35 9 -26 15
9 6 5 12 -17 24 -17 8 -33 13 -35 10 -3 -2 -11 2 -18 11 -7 8 -9 15 -4 15 4 0
-1 6 -11 14 -18 13 -18 14 4 26 15 8 21 8 17 1 -12 -18 1 -12 28 12 26 24 25
47 -1 25 -7 -6 -16 -8 -20 -4 -3 3 -1 6 6 6 8 0 9 5 2 19 -6 10 -8 21 -4 24 3
3 -6 4 -20 1 -27 -4 -45 10 -27 21 14 9 12 21 -7 40 -9 10 -17 27 -18 39 -1
11 -7 21 -14 21 -7 0 -19 9 -26 19 -11 15 -17 16 -28 7 -11 -9 -17 -8 -26 3
-16 19 -51 16 -51 -4 0 -9 -3 -11 -8 -5 -4 6 -15 15 -25 20 -10 6 -18 13 -18
18 1 4 1 18 1 32 0 22 4 24 31 21 38 -4 79 32 79 69 0 14 5 25 11 25 5 0 8 4
5 9 -4 5 0 12 6 14 7 3 2 6 -12 6 -23 1 -26 5 -26 37 0 19 -6 39 -14 44 -11 7
-11 11 -1 23 8 10 9 17 1 22 -16 10 -32 -5 -27 -26 3 -10 1 -22 -4 -25 -6 -3
-5 -11 2 -20 6 -8 9 -14 5 -14 -3 0 4 -12 17 -26 27 -31 30 -60 7 -60 -9 0
-17 6 -17 13 0 7 4 13 9 13 5 0 6 5 3 10 -4 6 -14 9 -23 8 -16 -3 -17 1 -9 45
1 5 -6 14 -16 20 -13 9 -19 9 -25 0 -10 -16 -28 -4 -37 26 -5 18 -4 22 5 16 7
-5 24 -9 37 -11 21 -2 22 0 11 13 -16 20 -19 41 -6 50 6 3 8 1 4 -5 -3 -6 -2
-13 4 -17 5 -3 10 -1 10 5 0 6 5 8 13 4 8 -5 8 -2 -2 9 -7 9 -24 17 -37 17
-23 0 -41 15 -27 23 15 7 68 -8 63 -18 -3 -6 6 -11 20 -12 22 -2 23 -2 5 6
-19 8 -19 8 3 15 45 15 24 30 -36 28 -21 -1 -22 1 -11 16 7 9 10 14 5 10 -14
-11 -44 25 -35 43 5 9 6 18 4 21 -2 2 -6 26 -9 53 -3 28 -8 64 -11 81 -5 30
-3 33 37 49 41 17 43 20 45 62 1 40 20 73 41 73 15 0 22 29 9 37 -6 4 -39 6
-72 6 -54 -2 -58 -1 -41 13 11 8 16 15 10 15 -30 4 -53 -6 -82 -38 l-33 -36
30 -15 c33 -15 35 -20 23 -38 -7 -11 -51 -29 -63 -26 -14 3 -41 -38 -35 -53 3
-8 9 -14 13 -13 14 4 53 -13 53 -23 0 -5 -4 -9 -10 -9 -5 0 -10 5 -10 10 0 6
-9 10 -21 10 -11 0 -17 -4 -14 -10 3 -5 1 -10 -5 -10 -6 0 -9 -10 -8 -22 2
-13 0 -23 -4 -23 -4 0 -15 -10 -23 -22 -9 -13 -25 -23 -36 -23 -10 0 -18 -3
-18 -7 4 -22 -3 -35 -15 -30 -7 3 -18 1 -24 -5 -14 -14 -32 -1 -25 19 5 14 1
15 -25 10 -18 -4 -32 -3 -32 1 0 4 -13 16 -28 27 -25 18 -26 18 -12 0 14 -17
14 -18 -6 -7 -12 6 -24 9 -27 5 -4 -3 -4 5 -2 18 3 13 14 32 26 42 18 14 18
17 5 17 -10 0 -14 5 -11 10 3 6 -1 10 -10 10 -9 0 -13 -4 -10 -10 3 -5 -1 -10
-10 -10 -9 0 -13 5 -10 10 3 6 1 10 -6 10 -7 0 -4 7 7 15 16 12 17 16 5 24 -8
5 -14 24 -13 42 0 23 -7 40 -25 56 -14 14 -22 30 -19 38 7 19 -18 19 -34 0 -9
-11 -16 -12 -32 -2 -16 9 -22 9 -25 0 -3 -8 -12 -4 -27 12 -24 26 -41 31 -50
16 -3 -5 2 -8 11 -7 9 0 18 -5 20 -11 3 -9 -4 -12 -20 -11 -14 1 -23 6 -21 10
3 4 -6 17 -20 29 -14 12 -23 26 -20 30 3 5 -7 4 -21 -1 -32 -12 -48 -13 -41
-1 3 4 -5 6 -18 4 -13 -3 -37 2 -53 11 -17 8 -33 12 -37 9 -12 -12 -46 -13
-46 -1 0 9 -3 9 -12 0 -18 -18 -38 -14 -38 8 0 11 -7 20 -15 20 -8 0 -15 9
-15 20 0 11 -4 20 -10 20 -5 0 -7 -6 -4 -13 3 -8 -3 -20 -13 -28 -10 -7 -15
-9 -11 -5 5 5 -1 16 -12 23 -11 8 -18 19 -15 24 4 5 -1 9 -9 9 -10 0 -16 9
-16 24 0 14 -4 28 -10 31 -14 9 -12 42 3 48 18 7 -23 35 -44 30 -9 -3 -20 0
-23 6 -4 6 -18 11 -31 11 -19 0 -23 4 -18 17 5 12 2 15 -10 10 -9 -3 -20 -1
-24 6 -5 8 -10 3 -15 -13 -7 -24 -7 -24 -4 3 2 19 -3 32 -15 41 -10 7 -17 15
-15 17 2 2 -10 5 -27 6 -17 2 -34 -3 -39 -9 -13 -22 -22 1 -10 26 9 21 9 24
-3 19 -8 -3 -12 -9 -9 -14 3 -5 1 -9 -4 -9 -5 0 -12 9 -15 19 -5 20 17 36 34
25 5 -3 8 0 7 8 -2 7 3 12 9 11 7 -2 15 8 19 21 5 22 44 68 44 53 0 -4 13 6
29 21 31 28 23 49 -11 31 -13 -7 -18 -6 -18 2 0 8 -5 7 -17 -2 -11 -10 -14
-10 -9 -1 4 6 2 12 -3 12 -6 0 -11 9 -11 20 0 11 -7 23 -16 27 -12 5 -13 7 -2
14 9 6 6 8 -9 6 -12 0 -19 -6 -15 -12 3 -5 -1 -5 -9 2 -16 13 -111 7 -142 -9
-9 -5 -21 -7 -26 -4 -4 3 -16 -1 -27 -8 -10 -8 -24 -12 -31 -9 -7 3 -20 0 -28
-7 -8 -6 -23 -9 -33 -6 -11 4 -31 1 -46 -5 -35 -16 -57 2 -50 41 5 24 2 28
-21 34 -16 4 -32 3 -38 -3 -6 -6 -16 -11 -21 -11 -6 0 -4 5 4 10 13 8 12 10
-3 10 -10 0 -16 4 -12 9 7 12 -31 25 -46 15 -6 -3 -22 6 -34 20 -14 16 -26 23
-30 17 -9 -16 -22 -13 -22 4 0 8 5 15 12 15 6 0 11 9 11 20 0 11 -4 20 -9 20
-4 0 -5 5 -2 10 3 6 0 10 -8 10 -8 0 -22 9 -32 20 -15 16 -16 26 -7 67 5 26
10 38 11 25 1 -28 21 -19 21 9 0 10 6 19 14 19 8 0 16 6 19 13 8 21 132 80
219 104 13 4 73 7 134 8 128 1 135 -6 48 -50 -55 -28 -67 -52 -23 -48 13 2 85
6 159 9 l135 6 35 -32 c19 -17 47 -34 62 -37 15 -3 33 -12 39 -19 6 -8 16 -14
21 -14 6 0 28 -14 49 -31 21 -17 39 -27 39 -22 0 4 7 -5 15 -21 20 -37 12 -61
-26 -76 -18 -8 -29 -19 -27 -28 3 -16 28 -23 121 -37 42 -6 46 -8 37 -25 -6
-12 -30 -23 -63 -30 -30 -6 -61 -19 -70 -31 -16 -19 -16 -20 10 -31 16 -7 48
-17 73 -22 27 -7 45 -17 45 -25 0 -16 8 -21 90 -51 101 -38 145 -61 162 -86 8
-13 20 -24 26 -24 6 0 18 -6 26 -13 19 -16 147 -57 179 -57 12 0 32 -10 44
-22 32 -32 108 -66 138 -62 95 13 109 22 68 41 -22 11 -22 11 13 27 20 8 39
22 42 31 4 8 13 15 22 15 12 0 14 -8 10 -37 -14 -109 -17 -175 -11 -213 2 -14
5 -33 5 -42 1 -11 9 -18 21 -18 22 0 26 20 8 38 -10 10 -10 15 -1 20 6 4 11
16 10 27 -1 14 3 19 15 17 23 -4 32 14 10 23 -13 5 -6 12 33 31 28 13 58 24
67 24 9 0 21 6 25 13 4 6 25 21 46 31 43 22 48 36 12 36 -14 0 -25 -4 -25 -10
0 -5 -7 -10 -15 -10 -21 0 -19 24 5 45 29 26 9 35 -68 29 -58 -4 -64 -2 -69
16 -3 11 -9 17 -14 14 -20 -12 -22 29 -2 45 22 18 41 61 45 105 4 43 30 55 68
32 44 -26 49 -12 6 16 -46 30 -48 65 -6 108 17 17 30 28 30 24 0 -3 7 -1 15 6
20 16 19 57 -1 68 -23 13 -34 74 -18 97 7 10 11 22 8 26 -3 5 5 9 16 9 19 0
21 4 16 26 -6 23 -4 26 13 21 23 -6 26 4 11 33 -8 15 -5 19 15 23 14 2 28 0
32 -5 3 -6 24 -8 46 -5 27 4 54 0 81 -12 39 -17 125 -42 156 -45 9 0 14 6 12
16 -5 34 21 29 76 -15 50 -39 65 -45 122 -51 124 -13 144 -16 192 -35 22 -8
31 -7 43 5 11 12 25 14 50 10 21 -4 56 0 90 9 30 9 60 13 66 10 6 -4 31 1 55
10 25 10 62 15 84 13 36 -3 40 -1 40 19 0 19 7 23 48 28 60 7 110 23 142 45
25 17 95 57 200 113 57 31 214 76 264 77 16 0 45 -6 64 -12 30 -11 35 -11 47
6 8 10 17 36 20 58 4 23 14 42 24 46 9 4 34 26 56 50 37 41 38 44 26 81 -6 21
-11 47 -11 57 0 10 -9 36 -19 58 -11 23 -28 61 -39 86 -11 25 -39 63 -61 85
-23 21 -41 44 -41 50 -1 17 -46 62 -71 70 -13 4 -31 13 -39 20 -8 6 -30 18
-48 25 -50 19 -127 143 -108 173 8 13 0 26 -41 65 -47 46 -50 51 -35 66 13 12
13 19 4 28 -7 7 -12 25 -12 40 0 19 -5 28 -16 28 -9 0 -45 19 -80 42 -61 41
-64 43 -45 58 23 18 12 60 -17 60 -10 0 -28 11 -40 25 -12 14 -29 25 -37 25
-9 0 -34 19 -57 42 -23 23 -67 59 -100 80 -32 21 -58 42 -58 48 0 6 -11 16
-25 22 -13 6 -27 19 -30 28 -3 10 -19 23 -34 30 -21 8 -27 17 -24 31 4 15 -3
23 -31 34 -20 8 -36 22 -36 31 0 8 -22 37 -50 64 -27 27 -50 55 -50 63 0 18
-48 67 -67 67 -8 0 -12 4 -9 9 3 5 -8 18 -26 29 -17 11 -32 29 -33 40 -1 19 0
19 49 -4 62 -29 66 -23 55 71 -5 39 -11 108 -14 155 -3 47 -10 103 -16 125 -5
22 -11 62 -13 88 -6 66 -29 90 -81 84 -62 -7 -219 -50 -245 -68 -22 -15 -23
-16 -5 -42 17 -27 15 -57 -5 -57 -5 0 -10 6 -10 13 -1 18 -126 107 -152 107
-13 0 -32 7 -42 15 -11 8 -28 15 -38 15 -27 0 -21 18 7 22 44 5 28 22 -35 38
-58 14 -60 16 -43 33 19 19 14 19 -119 20 -43 0 -46 1 -35 18 7 11 21 22 32
26 18 5 16 8 -12 20 -50 20 -154 27 -164 11 -6 -8 -12 -9 -16 -3 -5 6 -21 17
-38 25 -28 15 -30 20 -30 68 0 52 -12 71 -42 72 -7 0 -13 11 -13 23 0 37 -9
38 -61 9 l-48 -27 -20 20 c-12 11 -22 33 -23 47 -2 25 -4 26 -19 12 -16 -14
-19 -14 -38 5 -12 12 -21 33 -21 49 -1 23 -2 24 -11 10 -9 -17 -12 -16 -34 8
-14 15 -22 30 -19 35 3 5 -2 9 -11 9 -9 0 -29 9 -45 20 -15 11 -29 17 -32 15
-10 -10 -67 17 -73 34 -3 10 2 32 11 50 15 29 15 56 0 32z m801 -650 c43 -16
58 -41 25 -41 -10 0 -24 6 -30 13 -7 6 -16 12 -20 13 -4 0 -14 3 -22 7 -22 8
-93 21 -107 18 -6 -1 -14 3 -18 8 -3 6 -12 8 -20 5 -7 -3 -22 -1 -32 5 -15 10
-14 10 8 5 15 -3 29 -1 33 4 6 11 117 -11 183 -37z m79 -86 c53 -8 102 -25
242 -86 20 -9 38 -27 48 -49 9 -19 23 -41 32 -47 14 -11 13 -13 -9 -13 -17 0
-28 8 -37 30 -8 17 -18 27 -24 24 -5 -3 -12 3 -15 15 -3 12 -13 21 -23 21 -10
0 -23 6 -29 14 -8 10 -21 12 -46 6 -19 -4 -37 -5 -40 0 -2 4 -26 15 -52 25
-26 10 -54 23 -62 28 -7 6 -20 12 -28 13 -8 2 -17 5 -20 8 -8 7 7 27 17 21 4
-2 25 -7 46 -10z m344 -220 c11 -13 10 -14 -4 -9 -9 3 -16 10 -16 15 0 13 6
11 20 -6z m230 -189 c0 -3 -4 -8 -10 -11 -5 -3 -10 -1 -10 4 0 6 5 11 10 11 6
0 10 -2 10 -4z m-4290 -100 c0 -3 -4 -8 -10 -11 -5 -3 -10 -1 -10 4 0 6 5 11
10 11 6 0 10 -2 10 -4z m3275 -206 c-3 -5 -10 -10 -16 -10 -5 0 -9 5 -9 10 0
6 7 10 16 10 8 0 12 -4 9 -10z m-208 -6 c-3 -3 -12 -4 -19 -1 -8 3 -5 6 6 6
11 1 17 -2 13 -5z m268 -5 c11 -17 0 -20 -21 -4 -17 13 -17 14 -2 15 9 0 20
-5 23 -11z m-127 -120 c62 -21 22 -34 -136 -45 -65 -4 -106 -3 -118 5 -17 9
-14 11 16 13 19 1 48 1 63 0 17 -1 26 2 22 8 -3 5 7 12 22 16 15 3 33 7 38 9
21 7 63 5 93 -6z m-3264 -1503 c-8 -20 -68 -54 -109 -62 -22 -4 -46 -8 -52
-10 -25 -5 -11 12 33 40 58 36 137 56 128 32z m1540 -1 c3 -8 1 -15 -4 -15 -6
0 -10 -8 -10 -17 -1 -10 -24 -36 -52 -58 -29 -22 -78 -66 -111 -97 -32 -32
-61 -58 -65 -58 -3 0 -14 -7 -24 -17 -11 -10 -33 -16 -59 -15 -22 1 -50 -3
-61 -9 -11 -6 -18 -7 -15 -1 4 5 1 17 -7 27 -12 16 -14 16 -39 -9 -15 -15 -31
-25 -36 -21 -5 3 -12 1 -16 -4 -3 -5 -14 -8 -25 -6 -12 2 -18 0 -15 -5 10 -16
-13 -20 -28 -5 -20 19 -27 19 -27 -1 0 -8 -4 -12 -10 -9 -6 4 -7 -1 -3 -10 6
-17 -15 -38 -29 -29 -4 3 -8 14 -8 25 0 11 -6 22 -12 24 -8 3 -13 22 -13 43 1
20 -4 40 -10 45 -5 4 1 6 14 5 21 -3 25 1 25 27 1 17 -2 32 -6 35 -11 9 31 72
43 65 6 -4 3 -12 -8 -22 -11 -9 -12 -12 -3 -8 8 4 6 -1 -5 -10 -20 -17 -20
-17 2 -11 15 5 25 2 31 -11 10 -17 11 -17 29 0 11 9 25 17 32 17 7 0 9 5 5 11
-4 8 1 9 17 4 13 -4 27 -14 32 -21 4 -7 14 -11 22 -8 8 4 13 10 10 14 -5 8 46
32 61 29 15 -3 75 27 67 34 -3 4 -1 7 4 7 6 0 13 -6 16 -12 3 -8 12 -3 27 15
12 15 27 26 34 24 6 -2 25 3 41 12 68 36 179 51 189 26z m-1071 -11 c9 -9 -32
-64 -48 -64 -7 0 -25 -6 -39 -14 -16 -8 -47 -12 -77 -9 -164 12 -84 88 97 92
33 0 64 -2 67 -5z m-266 -44 c-1 -11 -2 -20 -4 -20 -1 0 -7 9 -13 20 -8 16 -8
20 4 20 9 0 14 -8 13 -20z m504 -23 c-11 -29 -71 -60 -96 -51 -18 7 -20 24 -3
24 7 0 22 11 33 24 17 19 60 37 73 30 1 -1 -2 -13 -7 -27z m-127 -51 c-7 -17
-34 -23 -34 -6 0 9 32 31 38 26 1 -2 0 -11 -4 -20z m281 4 c-3 -5 -12 -10 -18
-10 -7 0 -6 4 3 10 19 12 23 12 15 0z m-29 -45 c-2 -7 1 -18 7 -24 6 -6 8 -11
5 -11 -4 0 -13 7 -22 15 -16 16 -11 49 6 39 5 -3 7 -12 4 -19z m289 -124 c3
-5 1 -12 -5 -16 -5 -3 -10 1 -10 9 0 18 6 21 15 7z m-1995 -131 c0 -5 -4 -10
-10 -10 -5 0 -10 5 -10 10 0 6 5 10 10 10 6 0 10 -4 10 -10z m-220 -60 c0 -5
-4 -10 -10 -10 -5 0 -10 5 -10 10 0 6 5 10 10 10 6 0 10 -4 10 -10z m-200
-104 c0 -3 -4 -8 -10 -11 -5 -3 -10 -1 -10 4 0 6 5 11 10 11 6 0 10 -2 10 -4z
m3730 -430 c0 -2 -7 -7 -16 -10 -8 -3 -12 -2 -9 4 6 10 25 14 25 6z m-3402
-146 c3 -9 -1 -11 -12 -7 -10 4 -22 7 -27 7 -6 0 -8 4 -5 9 8 13 39 7 44 -9z
m62 -25 c0 -8 -4 -15 -10 -15 -5 0 -7 7 -4 15 4 8 8 15 10 15 2 0 4 -7 4 -15z
m94 7 c3 -5 -1 -9 -9 -9 -8 0 -12 4 -9 9 3 4 7 8 9 8 2 0 6 -4 9 -8z m-1006
-28 c-9 -10 -24 -14 -33 -10 -23 9 -9 26 23 26 24 0 25 -1 10 -16z m-83 -16
c6 -4 0 -8 -12 -8 -16 0 -21 4 -16 15 3 9 8 12 12 8 3 -4 11 -11 16 -15z
m4750 8 c18 -13 18 -14 -3 -25 -17 -9 -27 -9 -44 0 -21 11 -21 12 -3 25 10 8
22 14 25 14 3 0 15 -6 25 -14z m-135 -26 c0 -5 -5 -10 -11 -10 -5 0 -7 -4 -4
-10 4 -6 -7 -10 -27 -9 -31 0 -32 1 -10 11 12 6 22 15 22 20 0 4 7 8 15 8 8 0
15 -4 15 -10z m-4680 -31 c0 -18 -2 -19 -15 -9 -8 7 -15 16 -15 21 0 5 7 9 15
9 9 0 15 -9 15 -21z m5037 -24 c5 -34 -11 -38 -41 -10 -31 29 -33 39 -7 30 11
-3 22 -1 26 5 9 15 18 5 22 -25z m-4257 21 c0 -2 -9 -6 -20 -9 -11 -3 -18 -1
-14 4 5 9 34 13 34 5z m4740 -11 c0 -8 -4 -15 -9 -15 -13 0 -22 16 -14 24 11
11 23 6 23 -9z m-5320 -25 c0 -5 -2 -10 -4 -10 -3 0 -8 5 -11 10 -3 6 -1 10 4
10 6 0 11 -4 11 -10z m4740 0 c0 -5 -5 -10 -11 -10 -5 0 -7 5 -4 10 3 6 8 10
11 10 2 0 4 -4 4 -10z m-4406 -28 c3 -5 -1 -9 -9 -9 -8 0 -12 4 -9 9 3 4 7 8
9 8 2 0 6 -4 9 -8z m-532 -35 c-12 -13 -20 -27 -17 -30 3 -4 2 -5 -2 -2 -14
11 -10 46 4 41 8 -3 16 1 20 10 3 8 8 12 11 9 3 -3 -4 -16 -16 -28z m-57 -47
c3 -21 -53 -70 -80 -70 -17 0 4 25 25 30 13 3 26 12 28 19 3 8 0 11 -6 7 -18
-11 -26 16 -9 29 10 7 17 21 18 31 0 15 2 14 11 -6 5 -14 11 -32 13 -40z m-98
-22 c-3 -8 -6 -5 -6 6 -1 11 2 17 5 13 3 -3 4 -12 1 -19z m5226 5 c-7 -2 -19
-2 -25 0 -7 3 -2 5 12 5 14 0 19 -2 13 -5z m87 -93 c0 -5 -4 -10 -10 -10 -5 0
-10 5 -10 10 0 6 5 10 10 10 6 0 10 -4 10 -10z m17 -42 c-3 -7 -5 -2 -5 12 0
14 2 19 5 13 2 -7 2 -19 0 -25z m-5177 -78 c0 -5 -4 -10 -9 -10 -6 0 -13 5
-16 10 -3 6 1 10 9 10 9 0 16 -4 16 -10z m5302 -64 c4 -21 2 -23 -12 -14 -19
12 -22 38 -4 38 6 0 14 -11 16 -24z m-99 -29 c3 -8 -1 -14 -8 -14 -7 0 -11 6
-8 14 3 7 6 13 8 13 2 0 5 -6 8 -13z m120 -20 c3 -8 -1 -14 -9 -14 -8 0 -14 6
-14 14 0 7 4 13 9 13 5 0 11 -6 14 -13z m132 3 c3 -5 1 -10 -4 -10 -6 0 -11 5
-11 10 0 6 2 10 4 10 3 0 8 -4 11 -10z m55 -95 c-13 -15 -30 -12 -30 7 0 5 7
8 15 4 8 -3 15 0 15 6 0 6 3 8 6 5 4 -4 1 -13 -6 -22z m-5632 -17 c-2 -8 5
-12 17 -10 16 2 17 1 5 -7 -29 -18 -46 -6 -33 22 6 12 13 8 11 -5z m5542 -44
c0 -8 -5 -12 -10 -9 -6 4 -8 11 -5 16 9 14 15 11 15 -7z m330 -368 c0 -3 -4
-8 -10 -11 -5 -3 -10 -1 -10 4 0 6 5 11 10 11 6 0 10 -2 10 -4z m-6517 -97
c-4 -16 -8 -17 -14 -7 -13 19 -11 28 5 28 9 0 12 -7 9 -21z m7 -79 c0 -5 -7
-10 -15 -10 -8 0 -15 5 -15 10 0 6 7 10 15 10 8 0 15 -4 15 -10z m7214 -25
c17 -13 18 -15 3 -15 -20 0 -22 -11 -5 -28 9 -9 6 -14 -13 -21 -29 -11 -39 -6
-39 20 0 11 5 17 10 14 6 -4 10 5 10 19 0 30 7 32 34 11z m-521 -15 c3 -12 0
-20 -8 -20 -8 0 -11 8 -8 20 3 11 7 20 8 20 1 0 5 -9 8 -20z m86 -9 c-15 -5
-22 6 -14 19 6 9 10 9 16 -1 5 -8 4 -15 -2 -18z m-6779 9 c0 -5 -5 -10 -11
-10 -5 0 -7 5 -4 10 3 6 8 10 11 10 2 0 4 -4 4 -10z m6627 4 c-3 -3 -12 -4
-19 -1 -8 3 -5 6 6 6 11 1 17 -2 13 -5z m123 -8 c0 -3 -4 -8 -10 -11 -5 -3
-10 -1 -10 4 0 6 5 11 10 11 6 0 10 -2 10 -4z m287 -10 c0 -8 -6 -12 -15 -9
-11 5 -11 7 0 14 7 5 13 9 14 9 0 0 1 -6 1 -14z m81 -27 c-19 -12 -25 -11 -25
5 0 8 8 11 20 8 14 -4 16 -7 5 -13z m-511 -91 c-3 -12 -2 -30 4 -40 10 -19 -4
-27 -16 -8 -4 6 -10 8 -14 5 -5 -2 -16 4 -26 15 -17 18 -16 19 10 14 21 -4 28
0 32 16 3 11 8 20 10 20 3 0 3 -10 0 -22z m606 -3 c-7 -21 -13 -19 -13 6 0 11
4 18 10 14 5 -3 7 -12 3 -20z m257 9 c0 -8 -19 -13 -24 -6 -3 5 1 9 9 9 8 0
15 -2 15 -3z m-186 -75 c-8 -14 -21 -11 -21 5 0 8 6 12 14 9 7 -3 10 -9 7 -14z
m-611 4 c-7 -2 -21 -2 -30 0 -10 3 -4 5 12 5 17 0 24 -2 18 -5z m527 -27 c0
-9 -7 -12 -20 -9 -11 3 -17 9 -14 14 8 14 34 10 34 -5z m73 -30 c4 -9 -3 -16
-18 -18 -24 -5 -30 10 -10 24 15 11 22 10 28 -6z m82 4 c3 -5 1 -10 -4 -10 -6
0 -11 5 -11 10 0 6 2 10 4 10 3 0 8 -4 11 -10z m-46 -104 c7 -8 8 -17 3 -20
-6 -3 -15 1 -22 9 -12 14 -15 14 -30 0 -16 -14 -18 -14 -24 0 -3 9 -2 14 2 11
4 -2 14 -1 22 5 21 13 36 11 49 -5z m-114 -56 c-4 -6 -11 -8 -16 -5 -5 3 -6
-1 -3 -9 3 -9 18 -16 33 -17 23 0 24 -1 6 -9 -11 -5 -15 -9 -10 -10 6 -1 15
-3 20 -5 6 -1 16 -3 23 -3 8 -1 12 -9 10 -18 -4 -18 -23 -20 -23 -1 0 6 -4 12
-10 12 -5 1 -19 6 -31 12 -16 9 -24 9 -34 0 -9 -8 -11 -9 -6 0 3 6 0 13 -6 16
-10 3 -8 10 6 26 19 21 53 30 41 11z m-225 -110 c-8 -5 -19 -10 -25 -10 -5 0
-3 5 5 10 8 5 20 10 25 10 6 0 3 -5 -5 -10z m-20 -142 c0 -4 -4 -8 -9 -8 -6 0
-12 4 -15 8 -3 5 1 9 9 9 8 0 15 -4 15 -9z m-327 -352 c4 -10 1 -13 -9 -9 -7
3 -14 9 -14 14 0 14 17 10 23 -5z m-203 -375 c0 -14 -42 -41 -52 -35 -12 8 21
44 39 44 7 0 13 -4 13 -9z m550 -627 c0 -8 -4 -12 -10 -9 -5 3 -10 10 -10 16
0 5 5 9 10 9 6 0 10 -7 10 -16z m-7187 -57 c4 3 4 -5 2 -17 -3 -13 -9 -28 -15
-34 -8 -8 -9 -6 -5 5 4 10 2 20 -4 24 -6 3 -11 16 -11 28 1 20 2 21 14 5 7
-10 16 -15 19 -11z m6882 -17 c3 -5 1 -10 -4 -10 -6 0 -11 5 -11 10 0 6 2 10
4 10 3 0 8 -4 11 -10z m538 -549 c-11 -11 -19 -14 -22 -7 -2 6 -9 14 -15 19
-19 12 15 27 37 15 18 -9 18 -10 0 -27z m67 -141 c0 -5 7 -10 15 -10 13 0 15
-12 13 -65 -1 -44 -6 -65 -15 -65 -7 0 -11 6 -9 13 3 6 7 25 11 42 6 28 6 29
-12 12 -19 -16 -21 -15 -47 12 l-27 28 27 22 c29 23 44 27 44 11z m-388 -79
c26 14 33 6 13 -14 -8 -9 -15 -20 -15 -25 0 -9 -63 -52 -76 -52 -16 0 1 20 26
30 41 17 38 27 -11 35 -22 4 -38 9 -35 12 10 10 71 19 74 11 2 -4 13 -3 24 3z
m113 -22 c4 -6 -3 -18 -16 -27 -13 -9 -34 -27 -47 -39 -13 -13 -28 -23 -35
-24 -9 0 -9 -2 1 -6 16 -6 6 -23 -15 -23 -9 0 -13 6 -10 13 4 10 -2 13 -19 9
-13 -2 -24 -2 -24 2 0 13 43 48 93 76 60 33 63 34 72 19z m52 -24 c-3 -20 -2
-35 4 -35 6 0 7 -4 4 -10 -22 -36 40 -26 78 12 10 10 25 18 34 18 12 0 14 -7
8 -37 -8 -42 -48 -83 -82 -83 -12 0 -25 -5 -28 -11 -4 -6 -13 -8 -20 -6 -14 6
-42 -23 -47 -49 -4 -24 -24 -29 -32 -8 -4 10 1 25 10 35 10 11 12 19 6 19 -6
0 -14 -4 -17 -10 -9 -15 -25 -12 -25 4 0 8 20 32 45 54 25 22 45 45 45 52 0 9
-5 8 -18 -3 -18 -17 -40 -22 -77 -18 -19 1 -18 3 5 21 14 11 30 20 36 20 6 0
17 6 24 14 6 8 18 12 27 9 13 -5 13 -2 5 14 -11 20 -7 33 11 33 5 0 7 -15 4
-35z m-5935 -289 c5 -8 8 -7 8 1 0 6 15 11 34 10 19 0 33 -4 30 -9 -3 -4 2 -5
10 -2 19 7 21 -9 3 -24 -9 -8 -20 -7 -40 3 -14 7 -34 12 -44 10 -10 -2 -23 -4
-28 -4 -14 -1 -35 -75 -39 -135 -1 -26 3 -77 10 -112 6 -35 8 -64 3 -64 -5 0
-9 4 -9 8 0 5 -11 15 -25 22 -19 10 -24 19 -19 33 5 16 3 19 -10 14 -9 -4 -15
-2 -13 5 1 6 -9 14 -22 17 -46 12 -46 31 1 121 32 63 51 89 73 99 17 8 31 18
33 22 4 10 34 -1 44 -15z m697 -532 c-6 -8 -18 -14 -27 -14 -13 0 -12 3 3 20
20 22 43 17 24 -6z m-39 -43 c0 -6 12 -9 28 -8 23 2 27 -1 24 -22 -1 -14 -9
-32 -16 -40 -7 -9 -11 -22 -9 -28 3 -8 -18 -23 -51 -37 -30 -14 -65 -34 -78
-45 -30 -29 -44 -26 -24 4 22 34 21 48 -4 33 -31 -20 -37 2 -7 27 15 13 27 28
27 34 0 5 16 18 35 29 19 12 40 30 47 41 13 22 28 28 28 12z m-1182 -78 c3
-23 -40 -47 -69 -38 -24 8 -24 20 2 56 19 28 23 29 43 16 11 -8 22 -23 24 -34z
m1338 -88 c-11 -8 -24 -15 -28 -15 -5 0 -27 -12 -51 -26 -38 -24 -40 -25 -22
-5 19 22 90 60 110 60 6 0 1 -6 -9 -14z m10 -40 c-11 -8 -27 -15 -35 -15 -10
1 -7 6 9 15 33 19 50 18 26 0z m6024 -87 c0 -5 -9 -8 -20 -8 -24 0 -35 22 -25
47 6 16 8 15 25 -7 11 -14 20 -28 20 -32z m-6700 -72 c0 -42 -1 -44 -37 -50
-21 -3 -51 -13 -66 -21 -19 -10 -27 -11 -25 -3 3 7 19 16 37 20 17 5 31 14 29
21 -2 10 50 77 59 77 2 0 3 -20 3 -44z m6754 -42 c3 -8 2 -12 -4 -9 -6 3 -10
10 -10 16 0 14 7 11 14 -7z m-6844 -104 c0 -5 -4 -10 -10 -10 -5 0 -10 5 -10
10 0 6 5 10 10 10 6 0 10 -4 10 -10z m-103 -16 c-3 -3 -12 -4 -19 -1 -8 3 -5
6 6 6 11 1 17 -2 13 -5z m73 -4 c0 -5 -4 -10 -10 -10 -5 0 -10 5 -10 10 0 6 5
10 10 10 6 0 10 -4 10 -10z m115 -10 c3 -5 1 -10 -4 -10 -6 0 -11 5 -11 10 0
6 2 10 4 10 3 0 8 -4 11 -10z m6895 -145 c0 -8 -4 -15 -10 -15 -5 0 -10 7 -10
15 0 8 5 15 10 15 6 0 10 -7 10 -15z m27 -77 c-3 -7 -5 -2 -5 12 0 14 2 19 5
13 2 -7 2 -19 0 -25z m43 -68 c0 -5 -4 -10 -10 -10 -5 0 -10 5 -10 10 0 6 5
10 10 10 6 0 10 -4 10 -10z m40 -44 c0 -2 -8 -10 -17 -17 -16 -13 -17 -12 -4
4 13 16 21 21 21 13z m24 -79 c10 -7 22 -33 26 -58 9 -47 5 -64 -7 -33 -4 10
-13 24 -21 30 -8 6 -12 16 -9 21 4 6 0 16 -8 23 -30 25 -13 40 19 17z m76
-152 c7 -9 10 -25 6 -40 -6 -23 -8 -24 -22 -10 -8 8 -20 15 -25 15 -13 0 -11
24 3 38 16 16 23 15 38 -3z"/>
<path d="M4070 7401 c0 -12 5 -21 10 -21 6 0 10 6 10 14 0 8 -4 18 -10 21 -5
3 -10 -3 -10 -14z"/>
<path d="M4036 7402 c-6 -10 -2 -39 7 -48 4 -4 7 7 7 24 0 32 -4 39 -14 24z"/>
<path d="M5458 10686 c-14 -10 -15 -16 -5 -29 11 -14 16 -14 50 0 37 15 51 43
22 43 -8 0 -15 -7 -15 -16 0 -9 -6 -14 -12 -11 -7 2 -12 10 -10 16 3 15 -9 14
-30 -3z"/>
<path d="M5468 10623 c6 -2 18 -2 25 0 6 3 1 5 -13 5 -14 0 -19 -2 -12 -5z"/>
<path d="M5738 10302 c-39 -5 -35 -17 7 -19 19 -2 35 1 35 6 0 14 -11 17 -42
13z"/>
<path d="M2550 9700 c0 -3 -8 -7 -17 -8 -55 -6 -71 -10 -104 -21 -25 -8 -44
-9 -62 -2 -30 12 -40 -1 -28 -32 0 -2 36 3 79 10 42 7 84 15 92 16 21 3 80 31
80 37 0 3 -9 6 -20 6 -11 0 -20 -3 -20 -6z"/>
<path d="M2291 9527 c-6 -8 -8 -17 -5 -20 10 -9 45 13 39 24 -9 13 -21 11 -34
-4z"/>
<path d="M2490 9379 c0 -5 5 -7 10 -4 6 3 10 8 10 11 0 2 -4 4 -10 4 -5 0 -10
-5 -10 -11z"/>
<path d="M8890 8871 c0 -5 9 -7 20 -4 11 3 20 7 20 9 0 2 -9 4 -20 4 -11 0
-20 -4 -20 -9z"/>
<path d="M9002 8050 c0 -14 2 -19 5 -12 2 6 2 18 0 25 -3 6 -5 1 -5 -13z"/>
<path d="M9035 7860 c3 -5 8 -10 11 -10 2 0 4 5 4 10 0 6 -5 10 -11 10 -5 0
-7 -4 -4 -10z"/>
<path d="M4826 7111 c-4 -5 -2 -12 3 -15 5 -4 12 -2 15 3 4 5 2 12 -3 15 -5 4
-12 2 -15 -3z"/>
<path d="M1810 7041 c0 -6 4 -13 10 -16 6 -3 7 1 4 9 -7 18 -14 21 -14 7z"/>
<path d="M5250 6940 c0 -5 5 -10 10 -10 6 0 10 5 10 10 0 6 -4 10 -10 10 -5 0
-10 -4 -10 -10z"/>
<path d="M1967 6894 c3 -9 0 -20 -7 -24 -7 -5 -8 -10 -2 -14 5 -3 22 4 36 15
15 12 25 17 24 12 -2 -4 0 -9 5 -10 4 -2 7 -1 7 2 0 3 0 10 0 16 0 6 -6 9 -12
6 -7 -2 -23 0 -35 4 -18 7 -21 5 -16 -7z"/>
<path d="M1313 6785 c4 -9 7 -18 7 -21 0 -2 6 -1 14 2 14 5 30 -24 24 -42 -2
-5 2 -10 7 -11 6 -1 9 6 7 17 -2 10 2 21 8 25 5 3 10 0 10 -8 0 -7 7 -14 15
-14 10 0 14 9 13 28 -2 20 -9 30 -27 34 -13 3 -28 2 -34 -4 -7 -7 -17 -7 -30
1 -17 9 -19 8 -14 -7z"/>
<path d="M6702 6759 c2 -7 10 -15 17 -17 8 -3 12 1 9 9 -2 7 -10 15 -17 17 -8
3 -12 -1 -9 -9z"/>
<path d="M1423 6720 c-3 -11 -10 -17 -16 -13 -6 4 -7 1 -2 -7 4 -7 8 -22 9
-33 1 -11 8 -22 16 -24 13 -4 13 -3 0 7 -12 9 -11 10 8 5 25 -7 31 12 10 33
-9 9 -9 12 1 12 10 0 11 3 2 13 -6 8 -8 17 -4 20 3 4 1 7 -6 7 -7 0 -15 -9
-18 -20z"/>
<path d="M5480 6710 c0 -5 5 -10 11 -10 5 0 7 5 4 10 -3 6 -8 10 -11 10 -2 0
-4 -4 -4 -10z"/>
<path d="M1559 6693 c-1 -5 -1 -12 0 -17 1 -5 -9 -6 -21 -4 -17 3 -24 0 -24
-12 0 -11 9 -16 26 -16 22 0 26 4 26 28 0 26 -4 38 -7 21z"/>
<path d="M600 6660 c0 -5 7 -7 15 -4 8 4 15 8 15 10 0 2 -7 4 -15 4 -8 0 -15
-4 -15 -10z"/>
<path d="M5465 6650 c-3 -6 1 -7 9 -4 18 7 21 14 7 14 -6 0 -13 -4 -16 -10z"/>
<path d="M1959 6648 c-5 -18 -6 -38 -1 -34 7 8 12 36 6 36 -2 0 -4 -1 -5 -2z"/>
<path d="M1048 6623 c7 -3 16 -2 19 1 4 3 -2 6 -13 5 -11 0 -14 -3 -6 -6z"/>
<path d="M1115 6620 c-3 -5 -1 -10 4 -10 6 0 11 5 11 10 0 6 -2 10 -4 10 -3 0
-8 -4 -11 -10z"/>
<path d="M1490 6615 c-7 -9 -8 -15 -2 -15 5 0 12 7 16 15 3 8 4 15 2 15 -2 0
-9 -7 -16 -15z"/>
<path d="M5496 6615 c-17 -13 -18 -15 -2 -21 20 -8 29 -1 24 20 -3 13 -6 13
-22 1z"/>
<path d="M1085 6610 c-3 -5 -1 -10 4 -10 6 0 11 5 11 10 0 6 -2 10 -4 10 -3 0
-8 -4 -11 -10z"/>
<path d="M1667 6563 c-10 -9 -9 -23 1 -23 5 0 9 7 9 15 0 17 -1 18 -10 8z"/>
<path d="M1100 6535 c-7 -9 -8 -15 -2 -15 5 0 12 7 16 15 3 8 4 15 2 15 -2 0
-9 -7 -16 -15z"/>
<path d="M1130 6545 c0 -2 7 -8 15 -15 12 -10 15 -10 15 2 0 8 -7 15 -15 15
-8 0 -15 -1 -15 -2z"/>
<path d="M6405 6460 c-3 -5 1 -10 9 -10 9 0 16 5 16 10 0 6 -4 10 -9 10 -6 0
-13 -4 -16 -10z"/>
<path d="M980 6440 c-13 -8 -12 -10 3 -10 9 0 17 5 17 10 0 12 -1 12 -20 0z"/>
<path d="M1524 6382 c3 -5 0 -12 -6 -15 -7 -2 -10 -7 -7 -11 3 -4 12 0 18 8 9
11 9 16 0 22 -7 4 -9 3 -5 -4z"/>
<path d="M6220 6345 c1 -26 2 -28 11 -12 8 14 8 22 0 30 -8 8 -11 3 -11 -18z"/>
<path d="M1703 6345 c0 -8 4 -12 9 -9 5 3 6 10 3 15 -9 13 -12 11 -12 -6z"/>
<path d="M6150 6345 c-14 -17 -7 -45 12 -45 8 0 13 12 13 30 1 33 -6 38 -25
15z"/>
<path d="M1840 6310 c-18 -12 -2 -12 25 0 13 6 15 9 5 9 -8 0 -22 -4 -30 -9z"/>
<path d="M1776 6294 c-5 -14 -4 -15 9 -4 17 14 19 20 6 20 -5 0 -12 -7 -15
-16z"/>
<path d="M6210 6295 c0 -8 4 -15 10 -15 5 0 7 7 4 15 -4 8 -8 15 -10 15 -2 0
-4 -7 -4 -15z"/>
<path d="M6204 6248 c-15 -23 -12 -54 5 -65 13 -8 19 -6 27 12 8 17 7 27 -7
44 -13 16 -20 18 -25 9z"/>
<path d="M773 6101 c4 -28 12 -34 14 -11 1 11 -2 22 -8 25 -5 4 -8 -3 -6 -14z"/>
<path d="M797 6062 c-11 -16 9 -69 29 -76 10 -4 12 -2 8 6 -5 7 -3 8 7 2 23
-14 37 -13 35 4 -2 9 -17 20 -34 24 -21 6 -32 15 -34 31 -2 16 -5 18 -11 9z"/>
<path d="M910 6020 c-8 -5 -11 -10 -6 -10 5 0 3 -6 -3 -13 -6 -8 -7 -17 -3
-21 4 -4 8 -12 8 -17 1 -5 2 -12 3 -16 2 -14 31 49 31 68 0 21 -8 23 -30 9z"/>
<path d="M786 5946 c3 -8 12 -12 20 -9 17 6 9 23 -11 23 -8 0 -12 -6 -9 -14z"/>
<path d="M6690 5926 c0 -2 7 -7 16 -10 8 -3 12 -2 9 4 -6 10 -25 14 -25 6z"/>
<path d="M742 5884 c-1 -13 0 -24 2 -24 7 0 14 40 7 44 -4 3 -8 -6 -9 -20z"/>
<path d="M6762 5745 c-10 -22 -9 -25 8 -25 21 0 26 16 12 38 -6 9 -12 6 -20
-13z"/>
<path d="M6720 5729 c0 -10 5 -21 12 -25 7 -4 8 -3 4 5 -4 6 -3 18 3 25 8 9 7
13 -4 13 -8 0 -15 -8 -15 -18z"/>
<path d="M823 5715 c0 -8 4 -15 9 -15 4 0 8 4 8 9 0 6 -4 12 -8 15 -5 3 -9 -1
-9 -9z"/>
<path d="M638 5703 c7 -3 16 -2 19 1 4 3 -2 6 -13 5 -11 0 -14 -3 -6 -6z"/>
<path d="M6703 5680 c5 -30 12 -32 15 -5 1 14 -3 25 -8 25 -5 0 -9 -9 -7 -20z"/>
<path d="M6780 5684 c0 -8 5 -12 10 -9 6 3 10 10 10 16 0 5 -4 9 -10 9 -5 0
-10 -7 -10 -16z"/>
<path d="M596 5631 c-17 -19 -17 -19 8 -17 32 4 40 11 31 25 -9 16 -20 14 -39
-8z"/>
<path d="M370 5469 c0 -5 5 -7 10 -4 6 3 10 8 10 11 0 2 -4 4 -10 4 -5 0 -10
-5 -10 -11z"/>
<path d="M321 5426 c-10 -11 -9 -14 1 -12 14 2 23 15 15 22 -2 2 -10 -2 -16
-10z"/>
<path d="M295 5380 c3 -5 8 -10 11 -10 2 0 4 5 4 10 0 6 -5 10 -11 10 -5 0 -7
-4 -4 -10z"/>
<path d="M9070 5221 c0 -5 18 -9 40 -9 23 -1 38 3 35 9 -8 12 -75 12 -75 0z"/>
<path d="M7950 5209 c-23 -6 -23 -7 8 -8 17 -1 32 -6 32 -12 0 -5 8 -9 18 -7
9 1 24 -2 32 -7 12 -7 13 -6 3 7 -7 8 -10 18 -6 21 3 4 2 8 -3 9 -29 4 -62 4
-84 -3z"/>
<path d="M8086 5212 c-2 -4 4 -8 15 -8 10 0 19 4 19 8 0 4 -6 8 -14 8 -8 0
-17 -4 -20 -8z"/>
<path d="M8140 5210 c20 -13 33 -13 25 0 -3 6 -14 10 -23 10 -15 0 -15 -2 -2
-10z"/>
<path d="M7860 5149 c0 -5 5 -7 10 -4 6 3 10 8 10 11 0 2 -4 4 -10 4 -5 0 -10
-5 -10 -11z"/>
<path d="M7750 4980 c-9 -6 -10 -10 -3 -10 6 0 15 5 18 10 8 12 4 12 -15 0z"/>
<path d="M165 4970 c3 -5 8 -10 11 -10 2 0 4 5 4 10 0 6 -5 10 -11 10 -5 0 -7
-4 -4 -10z"/>
<path d="M7810 4955 c-7 -9 -8 -15 -2 -15 5 0 12 7 16 15 3 8 4 15 2 15 -2 0
-9 -7 -16 -15z"/>
<path d="M7905 4958 c11 -6 25 -19 32 -27 11 -14 12 -14 13 2 0 10 -11 22 -26
27 -34 13 -44 12 -19 -2z"/>
<path d="M7970 4950 c0 -5 5 -10 11 -10 5 0 7 5 4 10 -3 6 -8 10 -11 10 -2 0
-4 -4 -4 -10z"/>
<path d="M7996 4905 c4 -9 11 -14 16 -13 15 5 11 23 -6 26 -11 2 -14 -2 -10
-13z"/>
<path d="M7943 4885 c0 -8 4 -12 9 -9 5 3 6 10 3 15 -9 13 -12 11 -12 -6z"/>
<path d="M7828 4848 c-2 -13 -9 -22 -16 -20 -17 3 -15 -3 5 -19 14 -12 16 -12
8 0 -6 11 -4 13 8 8 11 -4 14 -2 11 8 -3 7 3 16 15 20 29 9 26 25 -3 25 -18 0
-26 -6 -28 -22z"/>
<path d="M7920 4835 l-34 -25 32 0 c21 0 31 4 27 10 -4 6 -1 17 5 25 17 20 11
18 -30 -10z"/>
<path d="M7966 4827 c3 -10 9 -15 12 -12 3 3 0 11 -7 18 -10 9 -11 8 -5 -6z"/>
<path d="M7851 4791 c-9 -16 -7 -17 14 -13 28 5 33 17 10 26 -8 3 -19 -2 -24
-13z"/>
<path d="M7655 4721 c-3 -5 -2 -12 3 -15 5 -3 9 1 9 9 0 17 -3 19 -12 6z"/>
<path d="M7640 4633 c0 -7 8 -13 18 -13 10 0 19 6 19 14 0 8 -9 14 -19 13 -10
-1 -18 -7 -18 -14z"/>
<path d="M79 4629 c-10 -6 -7 -9 14 -9 29 0 35 5 14 13 -8 3 -20 1 -28 -4z"/>
<path d="M7740 4630 c-13 -8 -12 -10 3 -10 9 0 17 5 17 10 0 12 -1 12 -20 0z"/>
<path d="M7435 4620 c-7 -12 18 -24 37 -18 8 3 5 9 -9 16 -14 8 -24 9 -28 2z"/>
<path d="M7490 4465 c0 -8 5 -15 10 -15 6 0 10 7 10 15 0 8 -4 15 -10 15 -5 0
-10 -7 -10 -15z"/>
<path d="M7348 4443 c6 -2 18 -2 25 0 6 3 1 5 -13 5 -14 0 -19 -2 -12 -5z"/>
<path d="M7110 4436 c0 -2 7 -9 15 -16 9 -7 15 -8 15 -2 0 5 -7 12 -15 16 -8
3 -15 4 -15 2z"/>
<path d="M9296 4391 c-4 -5 -2 -12 3 -15 5 -4 12 -2 15 3 4 5 2 12 -3 15 -5 4
-12 2 -15 -3z"/>
<path d="M6970 4340 c0 -5 5 -10 11 -10 5 0 7 5 4 10 -3 6 -8 10 -11 10 -2 0
-4 -4 -4 -10z"/>
<path d="M144 4326 c-8 -22 1 -30 21 -19 15 9 15 11 1 22 -13 11 -17 10 -22
-3z"/>
<path d="M6987 4306 c-25 -19 -21 -34 8 -28 31 5 39 16 22 30 -8 7 -17 6 -30
-2z"/>
<path d="M6935 3560 c-19 -8 -19 -9 3 -9 12 -1 22 4 22 9 0 6 -1 10 -2 9 -2 0
-12 -4 -23 -9z"/>
<path d="M7055 3530 c-3 -5 -1 -10 4 -10 6 0 11 5 11 10 0 6 -2 10 -4 10 -3 0
-8 -4 -11 -10z"/>
<path d="M835 2240 c-3 -6 1 -7 9 -4 18 7 21 14 7 14 -6 0 -13 -4 -16 -10z"/>
<path d="M190 765 c0 -8 9 -15 20 -15 13 0 18 5 14 15 -4 8 -12 15 -20 15 -8
0 -14 -7 -14 -15z"/>
<path d="M120 670 c0 -5 7 -10 16 -10 8 0 12 5 9 10 -3 6 -10 10 -16 10 -5 0
-9 -4 -9 -10z"/>
<path d="M0 200 c0 -5 11 -10 25 -10 14 0 25 5 25 10 0 6 -11 10 -25 10 -14 0
-25 -4 -25 -10z"/>
</g>
</svg>
